<svg id="Camada_1" data-name="Camada 1" xmlns="http://www.w3.org/2000/svg" viewBox="0 0 1080 315.56"><defs><style>.cls-1{fill:#92c3fb;}.cls-2{fill:#fff;}.cls-3,.cls-5{fill:#3565a3;}.cls-4{fill:#a6e9fc;}.cls-5{stroke:#fff;stroke-miterlimit:10;stroke-width:5px;}</style></defs><path class="cls-1" d="M309,148.57a141.19,141.19,0,0,1-18.54,70.05,153.79,153.79,0,0,1-58.08,11.29,153,153,0,0,1-74-18.91c45.81-23.54,77.52-69.42,79.68-122.66.08-1.92.12-3.86.12-5.8a141,141,0,0,0-16.31-66C273.27,39.6,309,90.05,309,148.57Z"/><path class="cls-2" d="M232.36,233.15a157,157,0,0,1-75.56-19.3l-5.34-2.95,5.42-2.78c46-23.67,75.9-69.61,78-119.91.07-1.94.11-3.85.11-5.67A136.86,136.86,0,0,0,219,18.1l-4.35-8.27,8.43,3.78c54.11,24.22,89.07,77.19,89.07,135a144.66,144.66,0,0,1-19,71.67l-.55,1-1,.42A156.25,156.25,0,0,1,232.36,233.15ZM165.18,211A151.64,151.64,0,0,0,288.24,216a138.09,138.09,0,0,0,17.56-67.46c0-52.23-30-100.38-77.06-125.06a143.18,143.18,0,0,1,12.56,59c0,1.9,0,3.9-.12,5.93C239.13,139.11,210.18,185.5,165.18,211Z"/><path class="cls-3" d="M290.44,218.62C264.91,263.5,215.6,293.91,159,293.91c-58.33,0-108.89-32.26-133.7-79.37a140.78,140.78,0,0,1-12.74-34.31C21.6,140.59,47.4,107.06,82.36,86.9c.86,53.2,31.24,99.47,76,124.1a153,153,0,0,0,74,18.91A153.79,153.79,0,0,0,290.44,218.62Z"/><path class="cls-2" d="M159,297.15c-57.87,0-110.17-31.07-136.51-81.08A144,144,0,0,1,9.43,181l-.17-.73.17-.74c9.09-39.72,35.11-74.5,71.36-95.41l4.66-2.68.09,5.44c.81,50,29.28,96.53,74.29,121.32a151.49,151.49,0,0,0,129.43,7.45l8.54-3.48-4.61,8.11C266.21,267.68,214.78,297.15,159,297.15ZM15.79,180.23A138.19,138.19,0,0,0,28.06,213c25.23,47.91,75.39,77.67,130.91,77.67,50.37,0,97-25,123.88-65.79a157.9,157.9,0,0,1-126-11c-45.38-25-74.66-71.15-77.42-121.4C47.26,112.55,24.24,144.24,15.79,180.23Z"/><path class="cls-4" d="M238.12,82.54c0,1.94,0,3.88-.12,5.8A154.29,154.29,0,0,0,82.36,86.9c-35,20.16-60.76,53.69-69.84,93.33A141.34,141.34,0,0,1,9,148.57c0-60.32,37.92-112,91.94-134a154.79,154.79,0,0,1,120.92,2A141,141,0,0,1,238.12,82.54Z"/><path class="cls-2" d="M12.53,194.46,9.43,181a144.66,144.66,0,0,1-3.66-32.39c0-60,36.87-113.81,93.93-137a158,158,0,0,1,123.39,2.08l1,.45.52,1a143.42,143.42,0,0,1,16.68,67.5c0,1.9,0,3.9-.12,5.93L241,93.89l-4.59-2.76A151.18,151.18,0,0,0,83.93,89.71C49.21,109.73,24.32,143,15.62,181ZM159,6.47a150.08,150.08,0,0,0-56.9,11.06c-54.64,22.25-89.94,73.68-89.94,131A138.73,138.73,0,0,0,13.22,166,150.34,150.34,0,0,1,80.79,84.08a157.56,157.56,0,0,1,154.15-1.23v-.31a136.85,136.85,0,0,0-15.42-63.46A149.57,149.57,0,0,0,159,6.47Z"/><path class="cls-5" d="M384.57,71.59a28.19,28.19,0,0,1,.61,6q0,5.83-1.84,8.44a5.77,5.77,0,0,1-5,2.61h-12.6V160A24.36,24.36,0,0,1,362,161a30.18,30.18,0,0,1-5.23.46q-5.91,0-8.2-2.77t-2.28-10v-60H329.45a22.41,22.41,0,0,1-1.4-4.45,27.56,27.56,0,0,1-.61-6q0-5.84,1.84-8.44a5.77,5.77,0,0,1,5-2.61h48.93A22.41,22.41,0,0,1,384.57,71.59Z"/><path class="cls-5" d="M407.69,160.13a22.4,22.4,0,0,1-3.51.92,24.82,24.82,0,0,1-5,.46c-3.71,0-6.39-.84-8-2.53s-2.45-4.94-2.45-9.75v-45.6a16.91,16.91,0,0,1,1.67-7.76A18.24,18.24,0,0,1,395,90.11a27.52,27.52,0,0,1,9.08-4.91,34.77,34.77,0,0,1,10.87-1.69q12.15,0,12.15,11.82a22.64,22.64,0,0,1-.56,5.15,21.33,21.33,0,0,1-1.34,4.07,23.2,23.2,0,0,0-6.13-.62,20.78,20.78,0,0,0-6,.92,16.4,16.4,0,0,0-5.41,2.77Z"/><path class="cls-5" d="M455.18,83.36a33.82,33.82,0,0,1,11,1.69,22,22,0,0,1,8.47,5.14,22.78,22.78,0,0,1,5.4,8.75,37,37,0,0,1,1.9,12.52v34.39a11.92,11.92,0,0,1-1.62,6.53,18.58,18.58,0,0,1-3.84,4.37q-7.25,6-20.4,6a34.58,34.58,0,0,1-10.65-1.53,22.05,22.05,0,0,1-8.13-4.61,20.05,20.05,0,0,1-5.24-7.83,30.48,30.48,0,0,1-1.84-11.06q0-10.59,4.57-16.27t14.16-7.07l14.6-2.15v-1.07q0-4.45-2.85-6.37t-8.19-1.92a28.14,28.14,0,0,0-8.19,1.23,35.2,35.2,0,0,0-7.3,3.07,10.63,10.63,0,0,1-2.45-4.23,17.56,17.56,0,0,1-1-5.91,12.56,12.56,0,0,1,1.4-6.37,11.42,11.42,0,0,1,4.29-4.07,26.52,26.52,0,0,1,7.63-2.46A48.7,48.7,0,0,1,455.18,83.36Zm.89,60.34a18.3,18.3,0,0,0,4.18-.54,8.39,8.39,0,0,0,3.4-1.45V129.42l-8,.92a9.79,9.79,0,0,0-5.12,1.85,5.42,5.42,0,0,0-2,4.6,7.13,7.13,0,0,0,1.73,5Q451.95,143.7,456.07,143.7Zm6.69-98.89q5.79,0,8.69,3.38a11.51,11.51,0,0,1,2.9,7.68,13.76,13.76,0,0,1-1.12,5.91,24.1,24.1,0,0,1-3.79,5.45l-10.58,12q-5,0-7.47-3.22a11.19,11.19,0,0,1-2.45-6.91,12.21,12.21,0,0,1,.5-3.54,15.21,15.21,0,0,1,2.06-4Z"/><path class="cls-5" d="M511.69,91.88H530a33.66,33.66,0,0,1,1.28,4.22,23.82,23.82,0,0,1,.61,5.61q0,5.37-1.72,7.75a5.45,5.45,0,0,1-4.63,2.38H512.69v48.68a26.3,26.3,0,0,1-8.47,1.38c-3.72,0-6.39-.85-8-2.54s-2.45-4.93-2.45-9.75V86a41,41,0,0,1,1.95-13.43,25.88,25.88,0,0,1,5.3-9.22,20.26,20.26,0,0,1,7.86-5.29,27.19,27.19,0,0,1,9.64-1.69q8.25,0,12.15,3t3.9,10.21a15.27,15.27,0,0,1-.95,5.53,11.94,11.94,0,0,1-2.06,3.69,39.67,39.67,0,0,0-4.41-1.31,23.09,23.09,0,0,0-5.29-.54c-3.19,0-5.68.75-7.47,2.23s-2.67,4.07-2.67,7.75Z"/><path class="cls-5" d="M555.27,131.93q1.56,5.53,5.24,7.76a15.65,15.65,0,0,0,8.25,2.23,24.7,24.7,0,0,0,8.91-1.62,23.27,23.27,0,0,0,6.8-3.76,12.06,12.06,0,0,1,3,4.3,14.2,14.2,0,0,1,1.23,5.84,12.56,12.56,0,0,1-6,11.21,20.3,20.3,0,0,1-6.75,2.68,40.77,40.77,0,0,1-8.58.85,29.41,29.41,0,0,1-12.21-2.54,26.51,26.51,0,0,1-9.75-7.6A37,37,0,0,1,539,138.54a61.88,61.88,0,0,1-2.34-18,56.13,56.13,0,0,1,2.39-17.43,35.51,35.51,0,0,1,6.36-12A24.87,24.87,0,0,1,564.63,82a23.43,23.43,0,0,1,10.76,2.46,25.8,25.8,0,0,1,8.36,6.75,30.93,30.93,0,0,1,5.41,10.29,43.19,43.19,0,0,1,1.89,13c0,3.48-.71,6.15-2.12,8A9.52,9.52,0,0,1,583,126.1Zm9.47-29.53a8.71,8.71,0,0,0-7.07,3.53q-2.85,3.52-3.4,10l19-4.3a12.79,12.79,0,0,0-.67-3.15,11.67,11.67,0,0,0-1.56-3,7.39,7.39,0,0,0-6.25-3.07Z"/><path class="cls-5" d="M633.63,154.6a20.8,20.8,0,0,1-5,1.92,24.83,24.83,0,0,1-6.08.7,24.11,24.11,0,0,1-9.53-1.92,19.85,19.85,0,0,1-7.91-6.3,33.44,33.44,0,0,1-5.41-11.29,61.56,61.56,0,0,1-2-16.89,57.23,57.23,0,0,1,2.06-16.2,34.67,34.67,0,0,1,5.8-11.74,23.39,23.39,0,0,1,9.08-7.14,29,29,0,0,1,11.93-2.38,31.22,31.22,0,0,1,11.75,2.3A38.8,38.8,0,0,1,643.1,88a19.17,19.17,0,0,1,3.57,2.61,16.79,16.79,0,0,1,3.51,4.84,16,16,0,0,1,1.28,6.83v57a40.71,40.71,0,0,1-2.17,14,27.26,27.26,0,0,1-6,9.83,23.52,23.52,0,0,1-9,5.76,32.79,32.79,0,0,1-11.09,1.84,38.73,38.73,0,0,1-10.59-1.31,17.64,17.64,0,0,1-7.24-3.76q-4-3.69-4-10.44a18.89,18.89,0,0,1,1.06-6.45,12.3,12.3,0,0,1,2.4-4.3,32.76,32.76,0,0,0,7.3,4.15,22.11,22.11,0,0,0,8.53,1.69q5.89,0,9.47-2.77t3.57-8.9Zm-7.47-16.89a10.68,10.68,0,0,0,4-.69,11.34,11.34,0,0,0,3.17-1.92V105.62a18,18,0,0,0-2.5-1.3,8.93,8.93,0,0,0-3.4-.54,9.31,9.31,0,0,0-7.81,4.07q-3,4.07-3,13.13,0,9.67,2.73,13.2A8.33,8.33,0,0,0,626.16,137.71Z"/><path class="cls-5" d="M719.23,123a61.85,61.85,0,0,1-2.06,16.59,37.8,37.8,0,0,1-5.91,12.51,26.67,26.67,0,0,1-9.2,7.91,25.84,25.84,0,0,1-12,2.76,26.48,26.48,0,0,1-12-2.68,25.92,25.92,0,0,1-9.2-7.84,37.7,37.7,0,0,1-5.91-12.51A62.37,62.37,0,0,1,660.82,123a59.52,59.52,0,0,1,2.12-16.43,38.46,38.46,0,0,1,6-12.51,26.76,26.76,0,0,1,9.2-7.91A25.63,25.63,0,0,1,690,83.36,24.93,24.93,0,0,1,702,86.2a27.42,27.42,0,0,1,9.2,8,38.41,38.41,0,0,1,6,12.52A58.86,58.86,0,0,1,719.23,123ZM690,103.78q-4.68,0-7.25,5T680.22,123q0,9.67,2.56,14.51t7.25,4.84q4.68,0,7.24-4.91T699.84,123q0-9.21-2.57-14.2T690,103.78Z"/><path class="cls-5" d="M819.43,112.28a77.21,77.21,0,0,1-2.67,21.27,46.81,46.81,0,0,1-7.41,15.51,32,32,0,0,1-11.21,9.44A31.08,31.08,0,0,1,758.91,149a48.57,48.57,0,0,1-7.36-15.51,76.31,76.31,0,0,1-2.67-21.19,74.73,74.73,0,0,1,2.73-21.19,47.41,47.41,0,0,1,7.47-15.43,32,32,0,0,1,11.14-9.45,31.53,31.53,0,0,1,27.76,0,32.66,32.66,0,0,1,11.2,9.45,46.87,46.87,0,0,1,7.52,15.43A74.73,74.73,0,0,1,819.43,112.28Zm-20.06,1.33q0-13.83-4.12-20.73T784.1,86q-6.79,0-11,6.83t-4.18,20.81q0,14,4.13,20.88t11.14,6.91q6.91,0,11-6.91T799.37,113.61Z"/><path class="cls-5" d="M882.41,160.13a23,23,0,0,1-3.51.92,25,25,0,0,1-5,.46c-3.72,0-6.39-.84-8-2.53s-2.45-4.94-2.45-9.75V113q0-4.76-2.06-7a7,7,0,0,0-5.41-2.23,11.33,11.33,0,0,0-4.18.77,18.37,18.37,0,0,0-3.73,2v53.59a23,23,0,0,1-3.51.92,25,25,0,0,1-5,.46q-5.58,0-8-2.53t-2.45-9.75V103a15.49,15.49,0,0,1,1.28-6.76,17.29,17.29,0,0,1,3.51-4.76,28.16,28.16,0,0,1,9.53-5.91,35.14,35.14,0,0,1,12.77-2.22q12.59,0,19.39,7.6t6.8,21.26Z"/><path class="cls-5" d="M905.15,161.51q-5.58,0-8-2.53t-2.45-9.75V60.17a24.28,24.28,0,0,1,3.51-.92,24.89,24.89,0,0,1,5-.46c3.72,0,6.39.84,8,2.53s2.45,4.94,2.45,9.75v89.06a23,23,0,0,1-3.51.92A25,25,0,0,1,905.15,161.51Z"/><path class="cls-5" d="M925.32,64.93a16.57,16.57,0,0,1,2.84-9.83,9.09,9.09,0,0,1,15.05,0,16.5,16.5,0,0,1,2.84,9.83,16.48,16.48,0,0,1-2.84,9.83,9.09,9.09,0,0,1-15.05,0A16.55,16.55,0,0,1,925.32,64.93Zm.89,21.8a26.3,26.3,0,0,1,8.47-1.38c3.72,0,6.39.85,8,2.54s2.45,4.94,2.45,9.75v62.49a23,23,0,0,1-3.51.92,24.89,24.89,0,0,1-5,.46q-5.58,0-8-2.53t-2.46-9.75Z"/><path class="cls-5" d="M1010.48,160.13a23,23,0,0,1-3.51.92,25,25,0,0,1-5,.46c-3.72,0-6.39-.84-8-2.53s-2.45-4.94-2.45-9.75V113q0-4.76-2.06-7a7,7,0,0,0-5.41-2.23,11.33,11.33,0,0,0-4.18.77,18.37,18.37,0,0,0-3.73,2v53.59a23,23,0,0,1-3.51.92,25,25,0,0,1-5,.46q-5.58,0-8-2.53t-2.45-9.75V103a15.49,15.49,0,0,1,1.28-6.76A17.29,17.29,0,0,1,962,91.49a28.16,28.16,0,0,1,9.53-5.91,35.14,35.14,0,0,1,12.77-2.22q12.59,0,19.39,7.6t6.8,21.26Z"/><path class="cls-5" d="M1038.46,131.93q1.56,5.53,5.23,7.76a15.68,15.68,0,0,0,8.25,2.23,24.79,24.79,0,0,0,8.92-1.62,23.4,23.4,0,0,0,6.8-3.76,12.06,12.06,0,0,1,3,4.3,14.35,14.35,0,0,1,1.22,5.84,12.56,12.56,0,0,1-6,11.21,20.16,20.16,0,0,1-6.74,2.68,40.8,40.8,0,0,1-8.59.85,29.36,29.36,0,0,1-12.2-2.54,26.43,26.43,0,0,1-9.75-7.6,37.05,37.05,0,0,1-6.47-12.74,61.88,61.88,0,0,1-2.34-18,56.11,56.11,0,0,1,2.4-17.43,35.32,35.32,0,0,1,6.35-12A24.87,24.87,0,0,1,1047.82,82a23.39,23.39,0,0,1,10.75,2.46,25.69,25.69,0,0,1,8.36,6.75,30.93,30.93,0,0,1,5.41,10.29,43.19,43.19,0,0,1,1.89,13c0,3.48-.7,6.15-2.11,8a9.57,9.57,0,0,1-5.91,3.53Zm9.47-30.86a8.75,8.75,0,0,0-7.08,3.53q-2.83,3.54-3.4,10l19-4.3a12.19,12.19,0,0,0-.67-3.14,11.27,11.27,0,0,0-1.56-3,7.42,7.42,0,0,0-6.24-3.07Z"/><path d="M351.49,232.33a2.85,2.85,0,0,1-1.25.64,6.84,6.84,0,0,1-2,.29,6,6,0,0,1-2.23-.39,2.26,2.26,0,0,1-1.32-1.18q-.86-1.86-2-4.8c-.76-1.95-1.57-4.14-2.43-6.55s-1.73-4.94-2.63-7.62-1.77-5.31-2.6-7.94-1.62-5.16-2.37-7.62-1.38-4.66-1.91-6.62a4.21,4.21,0,0,1,1.19-1.07,3.26,3.26,0,0,1,1.77-.5,2.4,2.4,0,0,1,1.85.64,5.08,5.08,0,0,1,1,1.94q3,9.38,5.66,18.1t5.92,17.74h.27c1-2.72,2-5.61,3-8.69s2-6.25,3-9.52,1.95-6.57,2.89-9.91,1.79-6.6,2.53-9.8A4.45,4.45,0,0,1,362,189a2.78,2.78,0,0,1,1.91.64,2.48,2.48,0,0,1,.72,1.94,19.93,19.93,0,0,1-.76,4q-.75,3-1.94,6.9c-.79,2.63-1.67,5.44-2.66,8.45s-2,5.89-2.93,8.65-1.88,5.3-2.76,7.59S352,231.18,351.49,232.33Z"/><path d="M398.2,216.37a23.24,23.24,0,0,1-1.05,7.23,16.22,16.22,0,0,1-3,5.51,13,13,0,0,1-4.71,3.51,16.41,16.41,0,0,1-12.37,0,13.1,13.1,0,0,1-4.73-3.51,15.8,15.8,0,0,1-3-5.51,23.24,23.24,0,0,1-1.05-7.23,22.58,22.58,0,0,1,1.08-7.22,16.42,16.42,0,0,1,3.06-5.51,13.22,13.22,0,0,1,4.74-3.51,16.08,16.08,0,0,1,12.24,0,12.83,12.83,0,0,1,4.7,3.51,16.72,16.72,0,0,1,3,5.51A22.58,22.58,0,0,1,398.2,216.37Zm-14.93-12.73a8.38,8.38,0,0,0-7,3.36c-1.71,2.24-2.57,5.37-2.57,9.37s.85,7.19,2.54,9.41a9.11,9.11,0,0,0,14.11,0c1.66-2.24,2.5-5.37,2.5-9.38s-.85-7.13-2.54-9.37A8.26,8.26,0,0,0,383.27,203.64Z"/><path d="M420.44,203.71a10.39,10.39,0,0,0-4.15.82A9.11,9.11,0,0,0,413,207a11.82,11.82,0,0,0-2.17,4,17.72,17.72,0,0,0-.79,5.48q0,6.15,2.83,9.4a9.5,9.5,0,0,0,7.57,3.26,11.24,11.24,0,0,0,4.6-.82,17.09,17.09,0,0,0,3.29-1.9,3.84,3.84,0,0,1,1.19,1.07A2.7,2.7,0,0,1,430,229a2.79,2.79,0,0,1-.73,1.86,6.28,6.28,0,0,1-2,1.5,13.26,13.26,0,0,1-3,1,17.28,17.28,0,0,1-3.78.39,18.19,18.19,0,0,1-6.32-1.07,13.58,13.58,0,0,1-5-3.22,14.86,14.86,0,0,1-3.29-5.4,22.52,22.52,0,0,1-1.18-7.69,21.28,21.28,0,0,1,1.25-7.62,16.39,16.39,0,0,1,3.35-5.48,13.53,13.53,0,0,1,5-3.33,16.91,16.91,0,0,1,6.09-1.1,17.28,17.28,0,0,1,3.78.39,10.59,10.59,0,0,1,3,1.11A6.36,6.36,0,0,1,429,202a2.94,2.94,0,0,1,.69,1.82,2.52,2.52,0,0,1-.46,1.51,3.19,3.19,0,0,1-1.18,1,17.38,17.38,0,0,0-3.16-1.86A10.69,10.69,0,0,0,420.44,203.71Z"/><path d="M440.77,219.74q1.77,9.38,11.31,9.37a12,12,0,0,0,5-1,14.35,14.35,0,0,0,3.56-2.15,3.09,3.09,0,0,1,1.57,2.72,2.88,2.88,0,0,1-.82,1.93,7.48,7.48,0,0,1-2.23,1.65,14.09,14.09,0,0,1-3.29,1.14,17.91,17.91,0,0,1-4.05.43q-7.63,0-12.07-4.51t-4.44-13.16a22.53,22.53,0,0,1,1.08-7.26,16,16,0,0,1,3-5.41,13,13,0,0,1,4.64-3.39,14.39,14.39,0,0,1,5.85-1.18,13.57,13.57,0,0,1,5.46,1.07,12.42,12.42,0,0,1,4.31,3,14.19,14.19,0,0,1,2.83,4.65,16.5,16.5,0,0,1,1,5.9,3.2,3.2,0,0,1-.66,2.26,3,3,0,0,1-1.84.82Zm9.08-16.17a8.41,8.41,0,0,0-6.65,3c-1.75,2-2.67,4.92-2.76,8.69l18.09-2.72a11,11,0,0,0-2.53-6.47A7.69,7.69,0,0,0,449.85,203.57Zm.13-14.89q-1.51,2-3,3.69t-2.79,3.33a3.91,3.91,0,0,1-2-.76,1.91,1.91,0,0,1-.79-1.61,2.33,2.33,0,0,1,.39-1.35,15.49,15.49,0,0,1,1.05-1.36l4-4.73a11.68,11.68,0,0,1,1.51-1.21,2.79,2.79,0,0,1,1.58-.43,3.05,3.05,0,0,1,1.71.43,6.35,6.35,0,0,1,1.38,1.28l5.53,7.16a3,3,0,0,1-.5,1.72,1.75,1.75,0,0,1-1.54.71,2,2,0,0,1-1.29-.39,9,9,0,0,1-1-1Z"/><path d="M503.3,205.5a8,8,0,0,0-5.56-1.86,14.28,14.28,0,0,0-4.67.71,16.94,16.94,0,0,0-3.49,1.65v26.76a9.45,9.45,0,0,1-1,.32,5.54,5.54,0,0,1-1.45.18c-1.89,0-2.83-.86-2.83-2.58V206.29a4.88,4.88,0,0,1,.56-2.47,6.06,6.06,0,0,1,1.94-1.9,18.84,18.84,0,0,1,4.54-2.07,20.34,20.34,0,0,1,6.38-.93q6,0,9.44,2.93t3.45,9.23v21.68a8,8,0,0,1-1,.32,5.56,5.56,0,0,1-1.41.18c-1.89,0-2.83-.86-2.83-2.58V211.37C505.37,208.69,504.68,206.74,503.3,205.5Z"/><path d="M531.29,198.92c3.82,0,6.84.93,9.08,2.79s3.36,4.79,3.36,8.8v17a4.3,4.3,0,0,1-.56,2.4,5.9,5.9,0,0,1-1.68,1.54,16.26,16.26,0,0,1-4.18,1.75,21.5,21.5,0,0,1-5.95.75q-6.2,0-9.58-2.64a9.14,9.14,0,0,1-3.38-7.66q0-4.72,2.83-7.12a14.48,14.48,0,0,1,8-3l9.34-1v-2q0-3.58-2-5.23a8.07,8.07,0,0,0-5.32-1.64,15.3,15.3,0,0,0-5.2.86,26.55,26.55,0,0,0-4.34,1.93,6.37,6.37,0,0,1-1-1.15,2.56,2.56,0,0,1-.43-1.43,2.81,2.81,0,0,1,.46-1.64,4.55,4.55,0,0,1,1.45-1.22,15.52,15.52,0,0,1,4.08-1.54A21.91,21.91,0,0,1,531.29,198.92Zm.07,30.26a14.44,14.44,0,0,0,4.57-.61,10.28,10.28,0,0,0,2.6-1.18V217l-8.16.93a9.74,9.74,0,0,0-5.07,1.68,4.72,4.72,0,0,0-1.64,3.9,5,5,0,0,0,1.91,4.18Q527.48,229.18,531.36,229.18Z"/><path d="M574.78,224.1a8.8,8.8,0,0,1-3.1,7.16q-3.09,2.56-8.94,2.57a21.44,21.44,0,0,1-4.61-.46,15.11,15.11,0,0,1-3.58-1.22,7.26,7.26,0,0,1-2.31-1.72,3.06,3.06,0,0,1-.82-2,3.36,3.36,0,0,1,.43-1.65,3.84,3.84,0,0,1,1.28-1.36,20.22,20.22,0,0,0,4.15,2.54,12.54,12.54,0,0,0,5.39,1.11q6.84,0,6.84-5,0-4.08-4.54-5.29l-5.46-1.58a11.64,11.64,0,0,1-5.85-3.32,8.41,8.41,0,0,1-1.84-5.62,9.54,9.54,0,0,1,.69-3.58,7.86,7.86,0,0,1,2.14-3,10.55,10.55,0,0,1,3.58-2,15.22,15.22,0,0,1,5-.75,16.33,16.33,0,0,1,7.44,1.46c1.88,1,2.83,2.11,2.83,3.4a3.22,3.22,0,0,1-.43,1.65A2.82,2.82,0,0,1,572,206.5a20.91,20.91,0,0,0-3.36-1.86,12.1,12.1,0,0,0-5.13-1,8.08,8.08,0,0,0-4.7,1.21,4,4,0,0,0-1.75,3.44,4.11,4.11,0,0,0,1,2.79,6.22,6.22,0,0,0,3.29,1.72l4.54,1.21a14,14,0,0,1,6.71,3.62A9.09,9.09,0,0,1,574.78,224.1Z"/><path d="M608.85,233.83a16.08,16.08,0,0,1-4.34-.57,13.45,13.45,0,0,1-3.35-1.36v13.88a7.25,7.25,0,0,1-1,.32,5.48,5.48,0,0,1-1.45.18c-1.88,0-2.83-.88-2.83-2.65V205.86a4.92,4.92,0,0,1,.46-2.29,5.47,5.47,0,0,1,1.91-1.79,24.17,24.17,0,0,1,4.25-2,16.33,16.33,0,0,1,5.62-.89,18.26,18.26,0,0,1,6.09,1,12.71,12.71,0,0,1,4.93,3.11,15.07,15.07,0,0,1,3.29,5.4,22.79,22.79,0,0,1,1.22,7.87,24.81,24.81,0,0,1-1.09,7.73,14.94,14.94,0,0,1-3.06,5.47,12.3,12.3,0,0,1-4.7,3.26A16.27,16.27,0,0,1,608.85,233.83Zm-.72-4.72a9.56,9.56,0,0,0,7.4-3q2.81-3,2.8-9.77a19,19,0,0,0-.82-5.94,10.65,10.65,0,0,0-2.24-3.93,8.19,8.19,0,0,0-3.26-2.15,11.65,11.65,0,0,0-3.88-.64,11,11,0,0,0-4,.64,19.9,19.9,0,0,0-3,1.43v21.11a10.67,10.67,0,0,0,3,1.65A11.32,11.32,0,0,0,608.13,229.11Z"/><path d="M637.08,232.76a9,9,0,0,1-1,.32,5.48,5.48,0,0,1-1.45.18c-1.88,0-2.83-.86-2.83-2.58V206.43a5.21,5.21,0,0,1,.56-2.61,6.23,6.23,0,0,1,1.88-1.9,16.27,16.27,0,0,1,4.64-2.11,22.45,22.45,0,0,1,6.61-.89q5.26,0,5.26,2.86a4.25,4.25,0,0,1-.2,1.32,3.38,3.38,0,0,1-.52,1c-.44-.1-1-.19-1.71-.29a16.74,16.74,0,0,0-2.11-.14,19,19,0,0,0-5.33.68,15.86,15.86,0,0,0-3.81,1.61Z"/><path d="M656.48,189.4a3.6,3.6,0,0,1,1-2.54,3.18,3.18,0,0,1,2.46-1,3.12,3.12,0,0,1,2.44,1,4,4,0,0,1,0,5.08,3.12,3.12,0,0,1-2.44,1,3.18,3.18,0,0,1-2.46-1A3.6,3.6,0,0,1,656.48,189.4Zm6.06,43.36a9,9,0,0,1-1,.32,5.48,5.48,0,0,1-1.45.18c-1.88,0-2.83-.86-2.83-2.58V200a7,7,0,0,1,1-.32,5.88,5.88,0,0,1,1.48-.18c1.85,0,2.77.88,2.77,2.65Z"/><path d="M709.51,205.28a7.17,7.17,0,0,0-4.94-1.64,10.63,10.63,0,0,0-7.63,3.29,11.25,11.25,0,0,1,.4,3.08v22.75a8.58,8.58,0,0,1-1,.32,5.58,5.58,0,0,1-1.42.18c-1.88,0-2.83-.86-2.83-2.58V210.44q0-3.51-1.84-5.16a7.26,7.26,0,0,0-5-1.64,11.23,11.23,0,0,0-4,.71,14.62,14.62,0,0,0-3.19,1.65v26.76a9.45,9.45,0,0,1-1,.32,5.54,5.54,0,0,1-1.45.18c-1.89,0-2.83-.86-2.83-2.58V206.29a4.73,4.73,0,0,1,.56-2.4,6.74,6.74,0,0,1,1.94-2,17.82,17.82,0,0,1,4.5-2.11,17.53,17.53,0,0,1,5.5-.89,14.81,14.81,0,0,1,5.72,1,8.86,8.86,0,0,1,3.82,2.83,14.18,14.18,0,0,1,4.27-2.76,14.83,14.83,0,0,1,5.86-1.1,12.46,12.46,0,0,1,8.49,2.75c2.1,1.84,3.15,4.66,3.15,8.48v22.61a8.58,8.58,0,0,1-1,.32,5.56,5.56,0,0,1-1.41.18c-1.89,0-2.83-.86-2.83-2.58V210.44Q711.35,206.93,709.51,205.28Z"/><path d="M730.23,219.74q1.78,9.38,11.32,9.37a12.07,12.07,0,0,0,5-1A14.27,14.27,0,0,0,750.1,226a3.1,3.1,0,0,1,1.58,2.72,2.88,2.88,0,0,1-.82,1.93,7.54,7.54,0,0,1-2.24,1.65,13.93,13.93,0,0,1-3.29,1.14,17.88,17.88,0,0,1-4,.43q-7.63,0-12.08-4.51t-4.44-13.16a22.25,22.25,0,0,1,1.09-7.26,15.94,15.94,0,0,1,3-5.41,13.08,13.08,0,0,1,4.64-3.39,14.41,14.41,0,0,1,5.86-1.18,13.64,13.64,0,0,1,5.46,1.07,12.51,12.51,0,0,1,4.31,3,14.36,14.36,0,0,1,2.83,4.65,16.72,16.72,0,0,1,1,5.9,3.2,3.2,0,0,1-.66,2.26,3,3,0,0,1-1.84.82Zm9.08-16.17a8.39,8.39,0,0,0-6.64,3c-1.76,2-2.68,4.92-2.77,8.69l18.1-2.72a11,11,0,0,0-2.54-6.47A7.69,7.69,0,0,0,739.31,203.57Z"/><path d="M765.89,232.76a9,9,0,0,1-1,.32,5.46,5.46,0,0,1-1.44.18c-1.89,0-2.83-.86-2.83-2.58V206.43a5.11,5.11,0,0,1,.56-2.61,6.18,6.18,0,0,1,1.87-1.9,16.4,16.4,0,0,1,4.64-2.11,22.45,22.45,0,0,1,6.61-.89q5.27,0,5.26,2.86a4.25,4.25,0,0,1-.19,1.32,3.63,3.63,0,0,1-.53,1c-.44-.1-1-.19-1.71-.29a16.49,16.49,0,0,0-2.11-.14,18.93,18.93,0,0,0-5.32.68,15.78,15.78,0,0,0-3.82,1.61Z"/><path d="M796.22,198.92q5.71,0,9.08,2.79t3.35,8.8v17a4.3,4.3,0,0,1-.56,2.4,5.72,5.72,0,0,1-1.67,1.54,16.41,16.41,0,0,1-4.18,1.75,21.58,21.58,0,0,1-6,.75q-6.18,0-9.57-2.64a9.15,9.15,0,0,1-3.39-7.66c0-3.15.95-5.52,2.83-7.12a14.55,14.55,0,0,1,8-3l9.34-1v-2c0-2.39-.65-4.13-2-5.23a8.1,8.1,0,0,0-5.33-1.64,15.28,15.28,0,0,0-5.19.86,26.67,26.67,0,0,0-4.35,1.93,6.32,6.32,0,0,1-1-1.15,2.48,2.48,0,0,1-.43-1.43,2.74,2.74,0,0,1,.46-1.64,4.55,4.55,0,0,1,1.45-1.22,15.25,15.25,0,0,1,4.08-1.54A21.85,21.85,0,0,1,796.22,198.92Zm.06,30.26a14.46,14.46,0,0,0,4.58-.61,10,10,0,0,0,2.59-1.18V217l-8.15.93a9.74,9.74,0,0,0-5.07,1.68,4.69,4.69,0,0,0-1.64,3.9,5,5,0,0,0,1.9,4.18C791.77,228.69,793.69,229.18,796.28,229.18Z"/><path d="M839.7,224.1a8.82,8.82,0,0,1-3.09,7.16q-3.09,2.56-9,2.57a21.34,21.34,0,0,1-4.6-.46,15.2,15.2,0,0,1-3.59-1.22,7.32,7.32,0,0,1-2.3-1.72,3,3,0,0,1-.82-2,3.36,3.36,0,0,1,.43-1.65,3.84,3.84,0,0,1,1.28-1.36A19.87,19.87,0,0,0,822.2,228a12.59,12.59,0,0,0,5.4,1.11q6.84,0,6.84-5,0-4.08-4.54-5.29l-5.46-1.58a11.63,11.63,0,0,1-5.86-3.32,8.47,8.47,0,0,1-1.84-5.62,9.54,9.54,0,0,1,.69-3.58,8,8,0,0,1,2.14-3,10.6,10.6,0,0,1,3.59-2,15.18,15.18,0,0,1,5-.75,16.25,16.25,0,0,1,7.43,1.46q2.83,1.47,2.83,3.4a3.21,3.21,0,0,1-.42,1.65,2.78,2.78,0,0,1-1.16,1.07,20.74,20.74,0,0,0-3.35-1.86,12.13,12.13,0,0,0-5.13-1,8.12,8.12,0,0,0-4.71,1.21,4,4,0,0,0-1.74,3.44,4.11,4.11,0,0,0,1,2.79,6.22,6.22,0,0,0,3.29,1.72l4.54,1.21a14,14,0,0,1,6.71,3.62A9.09,9.09,0,0,1,839.7,224.1Z"/><path d="M873.78,233.83a16.08,16.08,0,0,1-4.34-.57,13.7,13.7,0,0,1-3.36-1.36v13.88a7,7,0,0,1-1,.32,5.48,5.48,0,0,1-1.45.18c-1.89,0-2.83-.88-2.83-2.65V205.86a4.8,4.8,0,0,1,.46-2.29,5.38,5.38,0,0,1,1.91-1.79,24,24,0,0,1,4.24-2,16.39,16.39,0,0,1,5.63-.89,18.2,18.2,0,0,1,6.08,1,12.67,12.67,0,0,1,4.94,3.11,15.21,15.21,0,0,1,3.29,5.4,22.8,22.8,0,0,1,1.21,7.87A24.83,24.83,0,0,1,887.5,224a15.23,15.23,0,0,1-3.06,5.47,12.46,12.46,0,0,1-4.7,3.26A16.31,16.31,0,0,1,873.78,233.83Zm-.72-4.72a9.57,9.57,0,0,0,7.4-3q2.79-3,2.8-9.77a18.7,18.7,0,0,0-.83-5.94,10.64,10.64,0,0,0-2.23-3.93,8.19,8.19,0,0,0-3.26-2.15,11.65,11.65,0,0,0-3.88-.64,11.08,11.08,0,0,0-4,.64,20.9,20.9,0,0,0-3,1.43v21.11a10.82,10.82,0,0,0,3,1.65A11.38,11.38,0,0,0,873.06,229.11Z"/><path d="M925,216.37a23.24,23.24,0,0,1-1.05,7.23,16.22,16.22,0,0,1-3,5.51,12.86,12.86,0,0,1-4.71,3.51,16.39,16.39,0,0,1-12.36,0,13.14,13.14,0,0,1-4.74-3.51,15.8,15.8,0,0,1-3-5.51,23.24,23.24,0,0,1-1.05-7.23,22.3,22.3,0,0,1,1.09-7.22,16.24,16.24,0,0,1,3-5.51,13.22,13.22,0,0,1,4.74-3.51,16.08,16.08,0,0,1,12.24,0,12.83,12.83,0,0,1,4.7,3.51,16.72,16.72,0,0,1,3,5.51A22.58,22.58,0,0,1,925,216.37ZM910,203.64a8.38,8.38,0,0,0-7,3.36c-1.71,2.24-2.56,5.37-2.56,9.37s.84,7.19,2.53,9.41a8.37,8.37,0,0,0,7.07,3.33,8.26,8.26,0,0,0,7-3.36q2.5-3.36,2.5-9.38c0-4-.85-7.13-2.53-9.37A8.3,8.3,0,0,0,910,203.64Z"/><path d="M954.57,224.1a8.82,8.82,0,0,1-3.09,7.16q-3.11,2.56-9,2.57a21.44,21.44,0,0,1-4.61-.46,15.11,15.11,0,0,1-3.58-1.22,7.1,7.1,0,0,1-2.3-1.72,3,3,0,0,1-.83-2,3.47,3.47,0,0,1,.43-1.65,3.93,3.93,0,0,1,1.28-1.36,20.22,20.22,0,0,0,4.15,2.54,12.57,12.57,0,0,0,5.39,1.11q6.84,0,6.84-5,0-4.08-4.53-5.29l-5.47-1.58a11.64,11.64,0,0,1-5.85-3.32,8.41,8.41,0,0,1-1.84-5.62,9.54,9.54,0,0,1,.69-3.58,7.86,7.86,0,0,1,2.14-3,10.55,10.55,0,0,1,3.58-2,15.28,15.28,0,0,1,5-.75,16.31,16.31,0,0,1,7.43,1.46c1.88,1,2.83,2.11,2.83,3.4a3.22,3.22,0,0,1-.43,1.65,2.82,2.82,0,0,1-1.15,1.07,20.91,20.91,0,0,0-3.36-1.86,12.07,12.07,0,0,0-5.13-1,8.08,8.08,0,0,0-4.7,1.21,4,4,0,0,0-1.74,3.44,4.1,4.1,0,0,0,1,2.79,6.26,6.26,0,0,0,3.29,1.72l4.54,1.21a14,14,0,0,1,6.71,3.62A9.09,9.09,0,0,1,954.57,224.1Z"/><path d="M962.07,189.4a3.64,3.64,0,0,1,.95-2.54,3.22,3.22,0,0,1,2.47-1,3.09,3.09,0,0,1,2.43,1,4,4,0,0,1,0,5.08,3.09,3.09,0,0,1-2.43,1,3.22,3.22,0,0,1-2.47-1A3.64,3.64,0,0,1,962.07,189.4Zm6,43.36a9,9,0,0,1-1,.32,5.46,5.46,0,0,1-1.44.18c-1.89,0-2.83-.86-2.83-2.58V200a7,7,0,0,1,1-.32,5.83,5.83,0,0,1,1.48-.18c1.84,0,2.76.88,2.76,2.65Z"/><path d="M992.46,203.71a10.3,10.3,0,0,0-4.14.82A8.94,8.94,0,0,0,985,207a11.65,11.65,0,0,0-2.17,4,17.42,17.42,0,0,0-.79,5.48q0,6.15,2.83,9.4a9.47,9.47,0,0,0,7.56,3.26,11.32,11.32,0,0,0,4.61-.82,17.71,17.71,0,0,0,3.29-1.9,3.92,3.92,0,0,1,1.18,1.07A2.63,2.63,0,0,1,1002,229a3.53,3.53,0,0,1-1.91,2.9,12.21,12.21,0,0,1-5,1.68,9.47,9.47,0,0,1,1.52,5.36,7.39,7.39,0,0,1-2,5.44,6.85,6.85,0,0,1-5.13,2q-3.42,0-3.42-2.58a3.84,3.84,0,0,1,.39-1.72h1a4.64,4.64,0,0,0,3.45-1.11,4,4,0,0,0,1.09-3,8.13,8.13,0,0,0-.3-2.11,6.94,6.94,0,0,0-1-2.18,17.1,17.1,0,0,1-5.65-1.47,12.72,12.72,0,0,1-4.41-3.32,15.85,15.85,0,0,1-2.9-5.26,22.77,22.77,0,0,1-1.05-7.26,21.28,21.28,0,0,1,1.25-7.62,16.25,16.25,0,0,1,3.36-5.48,13.49,13.49,0,0,1,5-3.33,16.91,16.91,0,0,1,6.09-1.1,17.28,17.28,0,0,1,3.78.39,10.78,10.78,0,0,1,3,1.11,6.48,6.48,0,0,1,1.94,1.61,2.94,2.94,0,0,1,.69,1.82,2.59,2.59,0,0,1-.46,1.51,3.3,3.3,0,0,1-1.19,1,17.29,17.29,0,0,0-3.15-1.86A10.77,10.77,0,0,0,992.46,203.71Z"/><path d="M1020.88,198.92c3.82,0,6.84.93,9.08,2.79s3.36,4.79,3.36,8.8v17a4.3,4.3,0,0,1-.56,2.4,5.9,5.9,0,0,1-1.68,1.54,16.26,16.26,0,0,1-4.18,1.75,21.5,21.5,0,0,1-6,.75q-6.19,0-9.58-2.64a9.17,9.17,0,0,1-3.38-7.66q0-4.72,2.83-7.12a14.52,14.52,0,0,1,8-3l9.34-1v-2q0-3.58-2-5.23a8.07,8.07,0,0,0-5.32-1.64,15.3,15.3,0,0,0-5.2.86,26.93,26.93,0,0,0-4.34,1.93,6.37,6.37,0,0,1-1-1.15,2.56,2.56,0,0,1-.43-1.43,2.81,2.81,0,0,1,.46-1.64,4.67,4.67,0,0,1,1.45-1.22,15.52,15.52,0,0,1,4.08-1.54A21.91,21.91,0,0,1,1020.88,198.92Zm-4.74-12.6a7.87,7.87,0,0,1,2.57.4c.79.26,1.52.53,2.2.82l1.94.82a4.61,4.61,0,0,0,1.78.4,2,2,0,0,0,1.74-.76,5,5,0,0,0,.83-2h.39a3.8,3.8,0,0,1,2.11.6,2.36,2.36,0,0,1,.92,2.12,4.14,4.14,0,0,1-1.32,3.25,5,5,0,0,1-3.48,1.18,8.83,8.83,0,0,1-2.64-.39,24.19,24.19,0,0,1-2.33-.86l-2-.86a4.38,4.38,0,0,0-1.71-.39,1.91,1.91,0,0,0-1.71.78,6,6,0,0,0-.79,2h-.39a3.61,3.61,0,0,1-2.11-.65,2.36,2.36,0,0,1-.92-2.07,3.91,3.91,0,0,1,1.51-3.26A5.46,5.46,0,0,1,1016.14,186.32Zm4.81,42.86a14.44,14.44,0,0,0,4.57-.61,10.28,10.28,0,0,0,2.6-1.18V217L1020,218a9.74,9.74,0,0,0-5.07,1.68,4.72,4.72,0,0,0-1.64,3.9,4.93,4.93,0,0,0,1.91,4.18Q1017.07,229.18,1021,229.18Z"/><path d="M1071.14,216.37a23.24,23.24,0,0,1-1.05,7.23,16.22,16.22,0,0,1-3,5.51,12.86,12.86,0,0,1-4.71,3.51,16.39,16.39,0,0,1-12.36,0,13.14,13.14,0,0,1-4.74-3.51,15.8,15.8,0,0,1-3-5.51,23.24,23.24,0,0,1-1-7.23,22.3,22.3,0,0,1,1.09-7.22,16.24,16.24,0,0,1,3-5.51,13.22,13.22,0,0,1,4.74-3.51,16.08,16.08,0,0,1,12.24,0,12.83,12.83,0,0,1,4.7,3.51,16.72,16.72,0,0,1,3,5.51A22.58,22.58,0,0,1,1071.14,216.37Zm-14.93-12.73a8.38,8.38,0,0,0-7,3.36c-1.71,2.24-2.56,5.37-2.56,9.37s.84,7.19,2.53,9.41a8.37,8.37,0,0,0,7.07,3.33,8.26,8.26,0,0,0,7-3.36q2.51-3.36,2.5-9.38c0-4-.85-7.13-2.53-9.37A8.3,8.3,0,0,0,1056.21,203.64Z"/></svg>