<svg id="Camada_1" data-name="Camada 1" xmlns="http://www.w3.org/2000/svg" viewBox="0 0 1080 1080"><defs><style>.cls-1{fill:#92c3fb;}.cls-2{fill:#fff;}.cls-3,.cls-5{fill:#3565a3;}.cls-4{fill:#a6e9fc;}.cls-5{stroke:#fff;stroke-miterlimit:10;stroke-width:5px;}</style></defs><path class="cls-1" d="M321.81,409.18a129.43,129.43,0,0,1-17.52,65,148.31,148.31,0,0,1-124.79-7.07c43.28-21.86,73.22-64.46,75.27-113.89.07-1.79.11-3.59.11-5.39a129.21,129.21,0,0,0-15.41-61.26C288.08,308,321.81,354.84,321.81,409.18Z"/><path class="cls-2" d="M249.43,487.72a150.2,150.2,0,0,1-71.36-17.93l-5-2.73,5.12-2.59c43.48-22,71.69-64.63,73.61-111.34.08-1.8.11-3.57.11-5.26a125.45,125.45,0,0,0-15-59.84l-4.12-7.67,8,3.5c51.11,22.49,84.13,71.68,84.13,125.32a132.57,132.57,0,0,1-17.92,66.55l-.52.9-1,.38A149.92,149.92,0,0,1,249.43,487.72ZM186,467.11a145.42,145.42,0,0,0,116.22,4.71,126.5,126.5,0,0,0,16.59-62.64c0-48.49-28.3-93.21-72.78-116.12a131.13,131.13,0,0,1,11.86,54.81c0,1.77,0,3.62-.11,5.51C255.83,400.4,228.49,443.47,186,467.11Z"/><path class="cls-3" d="M304.29,474.22c-24.11,41.68-70.68,69.92-124.17,69.92-55.1,0-102.85-30-126.29-73.7a129.77,129.77,0,0,1-12-31.86c8.57-36.8,32.94-67.94,66-86.66.82,49.4,29.51,92.36,71.74,115.23a148.31,148.31,0,0,0,124.79,7.07Z"/><path class="cls-2" d="M180.12,547.14c-54.66,0-104.06-28.85-128.94-75.28a132.81,132.81,0,0,1-12.3-32.6l-.16-.68.16-.68C47.47,401,72,368.72,106.28,349.3l4.4-2.49.09,5.06c.76,46.46,27.65,89.62,70.17,112.64a145.26,145.26,0,0,0,122.24,6.92l8.07-3.23-4.36,7.53C281.41,519.78,232.83,547.14,180.12,547.14ZM44.89,438.58A126.77,126.77,0,0,0,56.48,469c23.83,44.48,71.2,72.11,123.64,72.11,47.58,0,91.62-23.2,117-61.08a151.41,151.41,0,0,1-119-10.26c-42.86-23.2-70.52-66.06-73.13-112.72C74.61,375.73,52.87,405.16,44.89,438.58Z"/><path class="cls-4" d="M254.88,347.87c0,1.8,0,3.6-.11,5.39a147.87,147.87,0,0,0-147-1.34c-33,18.72-57.39,49.86-66,86.66a129.16,129.16,0,0,1-3.38-29.4c0-56,35.83-104,86.84-124.46a148.57,148.57,0,0,1,114.21,1.89A129.21,129.21,0,0,1,254.88,347.87Z"/><path class="cls-2" d="M41.81,451.79l-2.93-12.53a131.94,131.94,0,0,1-3.46-30.08c0-55.73,34.83-105.67,88.72-127.25a151.67,151.67,0,0,1,116.55,1.93l.94.42.49.92a131.28,131.28,0,0,1,15.76,62.67c0,1.77,0,3.62-.11,5.51l-.2,5-4.33-2.57a144.94,144.94,0,0,0-144-1.31C76.46,373.12,52.94,404,44.73,439.26ZM180.12,277.24a143.8,143.8,0,0,0-53.74,10.27c-51.61,20.66-84.95,68.41-84.95,121.67a126.82,126.82,0,0,0,1,16.19C53.25,393.75,76,366.48,106.28,349.3a151,151,0,0,1,145.59-1.14v-.29A125.34,125.34,0,0,0,237.31,289,143.43,143.43,0,0,0,180.12,277.24Z"/><path class="cls-5" d="M393.19,337.7a25,25,0,0,1,.58,5.56q0,5.43-1.73,7.84a5.49,5.49,0,0,1-4.69,2.43h-11.9v66.3a22.47,22.47,0,0,1-3.57.85,28,28,0,0,1-4.95.43c-3.72,0-6.3-.85-7.74-2.57s-2.16-4.79-2.16-9.26V353.53h-15.9a20.52,20.52,0,0,1-1.31-4.14,25,25,0,0,1-.58-5.56q0-5.41,1.74-7.84a5.47,5.47,0,0,1,4.68-2.42h46.22A20.19,20.19,0,0,1,393.19,337.7Z"/><path class="cls-5" d="M415,419.92a23.12,23.12,0,0,1-3.32.85,23.72,23.72,0,0,1-4.68.43q-5.27,0-7.58-2.35t-2.32-9.05V367.45a15.54,15.54,0,0,1,1.58-7.2A17.06,17.06,0,0,1,403,354.9a26.12,26.12,0,0,1,8.58-4.56,33.26,33.26,0,0,1,10.26-1.57q11.47,0,11.48,11a20.71,20.71,0,0,1-.53,4.78,19.53,19.53,0,0,1-1.26,3.77,22.91,22.91,0,0,0-5.79-.57,19.88,19.88,0,0,0-5.64.86,15.31,15.31,0,0,0-5.1,2.57Z"/><path class="cls-5" d="M459.89,348.63a32.42,32.42,0,0,1,10.37,1.57,20.76,20.76,0,0,1,8,4.77,21.14,21.14,0,0,1,5.1,8.13,33.82,33.82,0,0,1,1.79,11.62v31.94a11,11,0,0,1-1.52,6.06,17.27,17.27,0,0,1-3.64,4.06q-6.84,5.57-19.26,5.56a33.13,33.13,0,0,1-10.06-1.42,21,21,0,0,1-7.68-4.28,18.73,18.73,0,0,1-4.95-7.27,27.94,27.94,0,0,1-1.74-10.27q0-9.84,4.32-15.11T454,377.43l13.79-2v-1q0-4.14-2.68-5.92t-7.74-1.78a27.07,27.07,0,0,0-7.74,1.14,33.53,33.53,0,0,0-6.89,2.85,9.8,9.8,0,0,1-2.32-3.92,16.17,16.17,0,0,1-1-5.49,11.51,11.51,0,0,1,1.32-5.92,10.86,10.86,0,0,1,4.05-3.78,25.35,25.35,0,0,1,7.21-2.28A47.08,47.08,0,0,1,459.89,348.63Zm.84,56a17.28,17.28,0,0,0,3.95-.5,8.05,8.05,0,0,0,3.21-1.35V391.4l-7.58.86a9.43,9.43,0,0,0-4.85,1.71,5,5,0,0,0-1.89,4.28,6.58,6.58,0,0,0,1.63,4.63Q456.84,404.67,460.73,404.66ZM467,312.84q5.47,0,8.22,3.14a10.56,10.56,0,0,1,2.73,7.13,12.8,12.8,0,0,1-1.05,5.49,22.7,22.7,0,0,1-3.58,5.06l-10,11.12q-4.74,0-7.05-3a10.24,10.24,0,0,1-2.32-6.41,11.51,11.51,0,0,1,.47-3.28,14.26,14.26,0,0,1,2-3.71Z"/><path class="cls-5" d="M513.26,356.54h17.26a29,29,0,0,1,1.22,3.92,22.18,22.18,0,0,1,.57,5.21q0,5-1.63,7.2a5.17,5.17,0,0,1-4.37,2.21h-12.1v45.19a22,22,0,0,1-3.32.86,23.72,23.72,0,0,1-4.68.43c-3.51,0-6-.79-7.58-2.35s-2.32-4.59-2.32-9.06v-59a37.47,37.47,0,0,1,1.84-12.47,24.09,24.09,0,0,1,5-8.56,19.27,19.27,0,0,1,7.43-4.92,26.24,26.24,0,0,1,9.1-1.56q7.8,0,11.48,2.78t3.68,9.48A14.08,14.08,0,0,1,534,341a11.09,11.09,0,0,1-2,3.42,38.56,38.56,0,0,0-4.16-1.21,22.48,22.48,0,0,0-5-.5,10.81,10.81,0,0,0-7.05,2.07q-2.53,2.07-2.53,7.2Z"/><path class="cls-5" d="M554.42,393.74c1,3.42,2.63,5.82,5,7.2a14.92,14.92,0,0,0,7.79,2.06,24,24,0,0,0,8.42-1.49A22.13,22.13,0,0,0,582,398a11.08,11.08,0,0,1,2.85,4,13,13,0,0,1,1.16,5.41,11.63,11.63,0,0,1-5.64,10.41,19.32,19.32,0,0,1-6.37,2.5,39.07,39.07,0,0,1-8.1.78,28.14,28.14,0,0,1-11.53-2.35,25,25,0,0,1-9.21-7.06,34.32,34.32,0,0,1-6.11-11.83,56.69,56.69,0,0,1-2.21-16.68A51.28,51.28,0,0,1,539.11,367a32.57,32.57,0,0,1,6-11.12,23.59,23.59,0,0,1,8.47-6.42,24.15,24.15,0,0,1,9.69-2.06,22.53,22.53,0,0,1,10.16,2.28,24.19,24.19,0,0,1,7.89,6.27,28.5,28.5,0,0,1,5.11,9.56,39.38,39.38,0,0,1,1.79,12.11q0,4.86-2,7.42a9.09,9.09,0,0,1-5.58,3.28Zm9-27.43a8.28,8.28,0,0,0-6.68,3.28c-1.79,2.19-2.86,5.27-3.22,9.27l17.9-4a11.34,11.34,0,0,0-.63-2.92,10.59,10.59,0,0,0-1.47-2.78,7.25,7.25,0,0,0-2.42-2.07A7.38,7.38,0,0,0,563.37,366.31Z"/><path class="cls-5" d="M628.43,414.79a19.86,19.86,0,0,1-4.68,1.78,23.73,23.73,0,0,1-5.74.64,23,23,0,0,1-9-1.78,18.75,18.75,0,0,1-7.48-5.85,30.78,30.78,0,0,1-5.1-10.48,55.74,55.74,0,0,1-1.9-15.68,52.32,52.32,0,0,1,2-15A32.11,32.11,0,0,1,602,357.47a22.25,22.25,0,0,1,8.58-6.63,27.91,27.91,0,0,1,11.27-2.21,30,30,0,0,1,11.1,2.14,36.7,36.7,0,0,1,4.48,2.14,17.93,17.93,0,0,1,3.37,2.42,15.41,15.41,0,0,1,3.31,4.49,14.49,14.49,0,0,1,1.22,6.35v52.89a37.23,37.23,0,0,1-2.06,13.05,25.14,25.14,0,0,1-5.68,9.12,22.24,22.24,0,0,1-8.53,5.35,31.56,31.56,0,0,1-10.48,1.71,37.12,37.12,0,0,1-10-1.21,17,17,0,0,1-6.84-3.49q-3.8-3.43-3.79-9.7a17.11,17.11,0,0,1,1-6,11.27,11.27,0,0,1,2.27-4,31.16,31.16,0,0,0,6.89,3.85,21,21,0,0,0,8.05,1.57,14.41,14.41,0,0,0,8.95-2.57q3.38-2.56,3.37-8.27Zm-7-15.69a10.06,10.06,0,0,0,3.73-.64,10.87,10.87,0,0,0,3-1.78V369.3a18.15,18.15,0,0,0-2.36-1.21,8.66,8.66,0,0,0-3.22-.5,8.8,8.8,0,0,0-7.36,3.78q-2.85,3.78-2.85,12.19,0,9,2.58,12.26A7.92,7.92,0,0,0,621.38,399.1Z"/><path class="cls-5" d="M709.28,385.41a56.15,56.15,0,0,1-1.95,15.4,34.42,34.42,0,0,1-5.58,11.62,25.16,25.16,0,0,1-8.68,7.35,24.77,24.77,0,0,1-11.37,2.56,25.39,25.39,0,0,1-11.37-2.49,24.53,24.53,0,0,1-8.69-7.27A34.79,34.79,0,0,1,656.06,401a56.88,56.88,0,0,1-1.94-15.55,54,54,0,0,1,2-15.25,35.34,35.34,0,0,1,5.63-11.62,25.25,25.25,0,0,1,8.68-7.35,24.55,24.55,0,0,1,11.27-2.56A23.94,23.94,0,0,1,693,351.27a25.93,25.93,0,0,1,8.69,7.41,35.44,35.44,0,0,1,5.63,11.62A53.85,53.85,0,0,1,709.28,385.41ZM681.7,367.59q-4.43,0-6.84,4.64t-2.43,13.18q0,9,2.43,13.48t6.84,4.49q4.42,0,6.84-4.56T691,385.41q0-8.55-2.42-13.18T681.7,367.59Z"/><path class="cls-5" d="M803.92,375.49a70.49,70.49,0,0,1-2.52,19.74,43.08,43.08,0,0,1-7,14.4,30.06,30.06,0,0,1-10.58,8.77,30.83,30.83,0,0,1-26.53,0,29.18,29.18,0,0,1-10.53-8.84,44.3,44.3,0,0,1-7-14.4,69.71,69.71,0,0,1-2.53-19.67,68.23,68.23,0,0,1,2.58-19.68,43.72,43.72,0,0,1,7.06-14.33,30.25,30.25,0,0,1,10.52-8.77,30.24,30.24,0,0,1,26.22,0,30.8,30.8,0,0,1,10.58,8.77,43.38,43.38,0,0,1,7.1,14.33A68.23,68.23,0,0,1,803.92,375.49ZM785,376.72q0-12.84-3.89-19.25t-10.53-6.42q-6.42,0-10.37,6.35t-3.95,19.32q0,13,3.9,19.39c2.59,4.27,6.11,6.41,10.53,6.41s7.82-2.14,10.42-6.41S785,385.37,785,376.72Z"/><path class="cls-5" d="M863.4,419.92a23.28,23.28,0,0,1-3.31.85,23.76,23.76,0,0,1-4.69.43q-5.26,0-7.58-2.35t-2.31-9.05V376.15q0-4.42-2-6.49a6.69,6.69,0,0,0-5.11-2.07,10.89,10.89,0,0,0-3.94.71,17.8,17.8,0,0,0-3.53,1.86v49.76a23.48,23.48,0,0,1-3.32.85,23.72,23.72,0,0,1-4.68.43q-5.26,0-7.58-2.35t-2.32-9.05V366.88a14,14,0,0,1,1.21-6.27,15.7,15.7,0,0,1,3.32-4.42,26.26,26.26,0,0,1,9-5.49,33.52,33.52,0,0,1,12-2.07q11.9,0,18.32,7.06t6.42,19.74Z"/><path class="cls-5" d="M884.88,421.2q-5.26,0-7.58-2.35T875,409.8V327.1a22.9,22.9,0,0,1,3.32-.86,24.53,24.53,0,0,1,4.68-.42q5.26,0,7.58,2.35t2.32,9.05v82.7a23.12,23.12,0,0,1-3.32.85A23.72,23.72,0,0,1,884.88,421.2Z"/><path class="cls-5" d="M903.93,331.52a15.18,15.18,0,0,1,2.69-9.13,8.67,8.67,0,0,1,14.21,0,16.82,16.82,0,0,1,0,18.25,8.66,8.66,0,0,1-14.21,0A15.13,15.13,0,0,1,903.93,331.52Zm.85,20.25a21.48,21.48,0,0,1,3.31-.86,23.76,23.76,0,0,1,4.69-.43c3.5,0,6,.79,7.58,2.35s2.31,4.59,2.31,9.06v58a23.28,23.28,0,0,1-3.31.85,23.76,23.76,0,0,1-4.69.43q-5.26,0-7.58-2.35t-2.31-9.05Z"/><path class="cls-5" d="M984.36,419.92a23.28,23.28,0,0,1-3.31.85,23.76,23.76,0,0,1-4.69.43c-3.51,0-6-.78-7.58-2.35s-2.31-4.59-2.31-9.05V376.15q0-4.42-2-6.49a6.69,6.69,0,0,0-5.11-2.07,10.89,10.89,0,0,0-3.94.71,17.8,17.8,0,0,0-3.53,1.86v49.76a23.12,23.12,0,0,1-3.32.85,23.72,23.72,0,0,1-4.68.43q-5.27,0-7.58-2.35T934,409.8V366.88a14,14,0,0,1,1.21-6.27,15.7,15.7,0,0,1,3.32-4.42,26.26,26.26,0,0,1,9-5.49,33.52,33.52,0,0,1,12-2.07q11.89,0,18.32,7.06t6.42,19.74Z"/><path class="cls-5" d="M1010.79,393.74q1.47,5.13,4.94,7.2a15,15,0,0,0,7.8,2.06,24,24,0,0,0,8.42-1.49,22.4,22.4,0,0,0,6.42-3.5,11.06,11.06,0,0,1,2.84,4,13,13,0,0,1,1.16,5.41,12.12,12.12,0,0,1-1.47,6.13,12.32,12.32,0,0,1-4.16,4.28,19.41,19.41,0,0,1-6.37,2.5,39.24,39.24,0,0,1-8.11.78,28.17,28.17,0,0,1-11.53-2.35,25,25,0,0,1-9.21-7.06,34.31,34.31,0,0,1-6.1-11.83,56.36,56.36,0,0,1-2.21-16.68A51.3,51.3,0,0,1,995.47,367a32.91,32.91,0,0,1,6-11.12,23.67,23.67,0,0,1,8.47-6.42,24.15,24.15,0,0,1,9.69-2.06,22.47,22.47,0,0,1,10.16,2.28,24.19,24.19,0,0,1,7.89,6.27,28.15,28.15,0,0,1,5.11,9.56,39.38,39.38,0,0,1,1.79,12.11q0,4.86-2,7.42a9,9,0,0,1-5.58,3.28Zm9-28.66a8.3,8.3,0,0,0-6.69,3.28q-2.68,3.27-3.21,9.26l17.9-4a11.34,11.34,0,0,0-.63-2.92,10.76,10.76,0,0,0-1.48-2.78,7.16,7.16,0,0,0-2.42-2.07A7.31,7.31,0,0,0,1019.74,365.08Z"/><path d="M362,487a2.72,2.72,0,0,1-1.18.59,6.52,6.52,0,0,1-1.93.27,5.59,5.59,0,0,1-2.11-.37,2.08,2.08,0,0,1-1.25-1.09c-.53-1.15-1.17-2.64-1.89-4.45s-1.49-3.85-2.3-6.08-1.64-4.6-2.49-7.08-1.66-4.94-2.45-7.37-1.53-4.8-2.24-7.08-1.3-4.33-1.8-6.14a3.7,3.7,0,0,1,1.12-1,3.13,3.13,0,0,1,1.68-.47,2.3,2.3,0,0,1,1.74.6,4.71,4.71,0,0,1,.93,1.8q2.79,8.7,5.34,16.81t5.6,16.47H359q1.38-3.78,2.83-8.07c1-2.86,1.93-5.8,2.86-8.84s1.84-6.1,2.73-9.2,1.69-6.13,2.4-9.1a4.17,4.17,0,0,1,2.11-.47,2.64,2.64,0,0,1,1.8.6,2.25,2.25,0,0,1,.68,1.8,18.89,18.89,0,0,1-.71,3.75q-.72,2.76-1.83,6.41t-2.52,7.84q-1.4,4.19-2.77,8t-2.6,7C363.12,484.3,362.45,485.89,362,487Z"/><path d="M406.07,472.14a21.26,21.26,0,0,1-1,6.71,15,15,0,0,1-2.83,5.12,12.18,12.18,0,0,1-4.44,3.25,15.66,15.66,0,0,1-11.68,0,12.58,12.58,0,0,1-4.48-3.25,14.73,14.73,0,0,1-2.85-5.12,21,21,0,0,1-1-6.71,20.42,20.42,0,0,1,1-6.71,15,15,0,0,1,2.89-5.12,12.45,12.45,0,0,1,4.47-3.25,15.35,15.35,0,0,1,11.56,0,12.18,12.18,0,0,1,4.44,3.25,15.6,15.6,0,0,1,2.86,5.12A20.69,20.69,0,0,1,406.07,472.14ZM392,460.31a8,8,0,0,0-6.65,3.13c-1.62,2.08-2.42,5-2.42,8.7s.79,6.68,2.39,8.74A8,8,0,0,0,392,484a7.84,7.84,0,0,0,6.65-3.13q2.36-3.12,2.36-8.7t-2.39-8.7A7.9,7.9,0,0,0,392,460.31Z"/><path d="M427.07,460.38a9.92,9.92,0,0,0-3.91.77,8.54,8.54,0,0,0-3.11,2.25,10.91,10.91,0,0,0-2.05,3.72,16.23,16.23,0,0,0-.74,5.09q0,5.71,2.67,8.73a9,9,0,0,0,7.14,3,10.83,10.83,0,0,0,4.35-.77,16.26,16.26,0,0,0,3.11-1.76,3.61,3.61,0,0,1,1.12,1,2.41,2.41,0,0,1,.44,1.46,2.59,2.59,0,0,1-.69,1.73,5.91,5.91,0,0,1-1.89,1.39,13.11,13.11,0,0,1-2.86,1,16.77,16.77,0,0,1-3.58.36,17.14,17.14,0,0,1-6-1,12.64,12.64,0,0,1-4.72-3,13.67,13.67,0,0,1-3.11-5,20.51,20.51,0,0,1-1.12-7.14,19.59,19.59,0,0,1,1.18-7.08,15.29,15.29,0,0,1,3.17-5.08A12.88,12.88,0,0,1,421.2,457a16.87,16.87,0,0,1,9.32-.66,10,10,0,0,1,2.83,1,6,6,0,0,1,1.83,1.49,2.7,2.7,0,0,1,.66,1.69,2.31,2.31,0,0,1-.44,1.4,2.91,2.91,0,0,1-1.12.93,17.07,17.07,0,0,0-3-1.73A10.5,10.5,0,0,0,427.07,460.38Z"/><path d="M446.28,475.26Q447.95,484,457,484a11.64,11.64,0,0,0,4.73-.93,13.7,13.7,0,0,0,3.35-2,2.84,2.84,0,0,1,1.49,2.53,2.68,2.68,0,0,1-.77,1.79,6.94,6.94,0,0,1-2.12,1.53,13.56,13.56,0,0,1-3.1,1.06,17.18,17.18,0,0,1-3.83.4q-7.2,0-11.4-4.18t-4.19-12.23a20.62,20.62,0,0,1,1-6.74,14.91,14.91,0,0,1,2.86-5,12.28,12.28,0,0,1,4.38-3.15,13.86,13.86,0,0,1,5.53-1.1,13,13,0,0,1,5.16,1,11.72,11.72,0,0,1,4.07,2.82,13.21,13.21,0,0,1,2.67,4.32,15.13,15.13,0,0,1,1,5.48,2.89,2.89,0,0,1-.62,2.09,2.82,2.82,0,0,1-1.74.77Zm8.57-15a8,8,0,0,0-6.28,2.82q-2.47,2.83-2.6,8.07l17.08-2.52a10,10,0,0,0-2.39-6A7.35,7.35,0,0,0,454.85,460.25Zm.12-13.82q-1.43,1.86-2.82,3.42t-2.64,3.09a3.76,3.76,0,0,1-1.87-.7,1.78,1.78,0,0,1-.74-1.49,2.11,2.11,0,0,1,.37-1.26c.25-.36.58-.78,1-1.27l3.79-4.38a11,11,0,0,1,1.43-1.13,2.68,2.68,0,0,1,1.49-.4,2.9,2.9,0,0,1,1.62.4,6.26,6.26,0,0,1,1.31,1.19l5.22,6.65a2.69,2.69,0,0,1-.47,1.59,1.65,1.65,0,0,1-1.46.67,1.86,1.86,0,0,1-1.21-.37,8.54,8.54,0,0,1-1-.89Z"/><path d="M505.34,462a7.67,7.67,0,0,0-5.25-1.73,13.64,13.64,0,0,0-4.42.67,15.51,15.51,0,0,0-3.29,1.53v24.84a7.35,7.35,0,0,1-.93.3,5.35,5.35,0,0,1-1.37.17c-1.78,0-2.67-.8-2.67-2.39V462.77a4.49,4.49,0,0,1,.53-2.29,5.74,5.74,0,0,1,1.83-1.76,18.1,18.1,0,0,1,4.29-1.93,19.73,19.73,0,0,1,6-.86c3.76,0,6.74.91,8.91,2.72s3.26,4.68,3.26,8.57v20.13a6.24,6.24,0,0,1-1,.3,5.39,5.39,0,0,1-1.33.17c-1.79,0-2.68-.8-2.68-2.39V467.49Q507.29,463.77,505.34,462Z"/><path d="M531.77,455.93q5.41,0,8.58,2.59t3.17,8.17v15.75a3.89,3.89,0,0,1-.53,2.22,5.3,5.3,0,0,1-1.58,1.43,15.83,15.83,0,0,1-3.95,1.63,20.81,20.81,0,0,1-5.62.7q-5.85,0-9-2.46a8.41,8.41,0,0,1-3.2-7.11c0-2.92.89-5.13,2.67-6.61a14,14,0,0,1,7.52-2.76l8.82-.93v-1.86q0-3.31-1.86-4.85a7.73,7.73,0,0,0-5-1.53,15,15,0,0,0-4.91.8,25.63,25.63,0,0,0-4.1,1.8,6.29,6.29,0,0,1-.9-1.07,2.31,2.31,0,0,1-.4-1.33,2.49,2.49,0,0,1,.43-1.52,4.24,4.24,0,0,1,1.37-1.13,14.59,14.59,0,0,1,3.85-1.43A21.29,21.29,0,0,1,531.77,455.93Zm.07,28.1a14.2,14.2,0,0,0,4.32-.56,9.81,9.81,0,0,0,2.45-1.1v-9.63l-7.71.86a9.23,9.23,0,0,0-4.78,1.56,4.33,4.33,0,0,0-1.55,3.62,4.58,4.58,0,0,0,1.8,3.89A9,9,0,0,0,531.84,484Z"/><path d="M572.85,479.32a8.14,8.14,0,0,1-2.92,6.64q-2.92,2.39-8.45,2.39a20.3,20.3,0,0,1-4.35-.43,14.78,14.78,0,0,1-3.39-1.13,7.19,7.19,0,0,1-2.18-1.59,2.83,2.83,0,0,1-.77-1.83,3.12,3.12,0,0,1,.4-1.53,3.54,3.54,0,0,1,1.21-1.26,19.78,19.78,0,0,0,3.92,2.36,12.14,12.14,0,0,0,5.09,1q6.47,0,6.47-4.65,0-3.79-4.29-4.92l-5.16-1.46a11,11,0,0,1-5.53-3.09,7.73,7.73,0,0,1-1.74-5.22,8.77,8.77,0,0,1,.65-3.32,7.52,7.52,0,0,1,2-2.79,9.9,9.9,0,0,1,3.39-1.89,14.41,14.41,0,0,1,4.75-.7,15.47,15.47,0,0,1,7,1.36c1.78.91,2.68,2,2.68,3.16a2.92,2.92,0,0,1-.41,1.53,2.54,2.54,0,0,1-1.09,1,19.59,19.59,0,0,0-3.16-1.72,11.69,11.69,0,0,0-4.85-.94,7.72,7.72,0,0,0-4.44,1.13,3.66,3.66,0,0,0-1.65,3.19,3.78,3.78,0,0,0,.93,2.59,5.94,5.94,0,0,0,3.11,1.6L564.4,470a13.24,13.24,0,0,1,6.33,3.35A8.39,8.39,0,0,1,572.85,479.32Z"/><path d="M605,488.35a15.56,15.56,0,0,1-4.1-.53,13.06,13.06,0,0,1-3.17-1.26v12.89q-.32.12-.93.3a5.31,5.31,0,0,1-1.37.16q-2.67,0-2.67-2.46V462.37a4.43,4.43,0,0,1,.44-2.12,5.08,5.08,0,0,1,1.8-1.66,22.17,22.17,0,0,1,4-1.83,15.83,15.83,0,0,1,5.31-.83,17.59,17.59,0,0,1,5.75.93,12,12,0,0,1,4.66,2.89,13.9,13.9,0,0,1,3.1,5,20.64,20.64,0,0,1,1.15,7.3,22.73,22.73,0,0,1-1,7.18,14,14,0,0,1-2.89,5.08,11.67,11.67,0,0,1-4.44,3A15.39,15.39,0,0,1,605,488.35Zm-.68-4.38a9.1,9.1,0,0,0,7-2.83q2.64-2.82,2.64-9.07a17,17,0,0,0-.78-5.51,9.65,9.65,0,0,0-2.11-3.65,7.74,7.74,0,0,0-3.07-2,11.21,11.21,0,0,0-3.67-.6,10.54,10.54,0,0,0-3.79.6,18.69,18.69,0,0,0-2.8,1.33v19.6a10.27,10.27,0,0,0,2.8,1.53A10.88,10.88,0,0,0,604.35,484Z"/><path d="M631.69,487.35a7.35,7.35,0,0,1-.93.3,5.35,5.35,0,0,1-1.37.17c-1.78,0-2.67-.8-2.67-2.39V462.91a4.71,4.71,0,0,1,.53-2.43,5.9,5.9,0,0,1,1.77-1.76,15.26,15.26,0,0,1,4.38-2,21.77,21.77,0,0,1,6.24-.83q5,0,5,2.66a4.06,4.06,0,0,1-.18,1.23,3.35,3.35,0,0,1-.5,1q-.61-.13-1.62-.27a16.46,16.46,0,0,0-2-.13,18.17,18.17,0,0,0-5,.63,14.89,14.89,0,0,0-3.6,1.5Z"/><path d="M650,447.09a3.3,3.3,0,0,1,.9-2.35,3,3,0,0,1,2.33-1,2.93,2.93,0,0,1,2.3,1,3.62,3.62,0,0,1,0,4.71,3,3,0,0,1-2.3,1,3.06,3.06,0,0,1-2.33-1A3.33,3.33,0,0,1,650,447.09Zm5.71,40.26a6.39,6.39,0,0,1-.93.3,5.27,5.27,0,0,1-1.36.17c-1.79,0-2.68-.8-2.68-2.39v-28.5a6.85,6.85,0,0,1,1-.3,5.63,5.63,0,0,1,1.39-.17q2.61,0,2.61,2.46Z"/><path d="M700.1,461.84a6.8,6.8,0,0,0-4.66-1.53,10.11,10.11,0,0,0-7.21,3.06,10.52,10.52,0,0,1,.37,2.86v21.12a6.24,6.24,0,0,1-1,.3,5.39,5.39,0,0,1-1.33.17c-1.79,0-2.68-.8-2.68-2.39v-18.8a6.06,6.06,0,0,0-1.74-4.79,6.89,6.89,0,0,0-4.72-1.53,10.71,10.71,0,0,0-3.76.67,13.42,13.42,0,0,0-3,1.53v24.84a7.35,7.35,0,0,1-.93.3,5.35,5.35,0,0,1-1.37.17c-1.78,0-2.67-.8-2.67-2.39V462.77a4.24,4.24,0,0,1,.53-2.22,6.31,6.31,0,0,1,1.83-1.83,18.22,18.22,0,0,1,9.44-2.79,14.27,14.27,0,0,1,5.41,1,8.33,8.33,0,0,1,3.6,2.63,13.64,13.64,0,0,1,4-2.56,14,14,0,0,1,5.53-1,11.88,11.88,0,0,1,8,2.56c2,1.7,3,4.33,3,7.87v21a7.07,7.07,0,0,1-1,.3,5.47,5.47,0,0,1-1.34.17c-1.78,0-2.67-.8-2.67-2.39v-18.8A6.06,6.06,0,0,0,700.1,461.84Z"/><path d="M719.67,475.26q1.68,8.72,10.69,8.71a11.56,11.56,0,0,0,4.72-.93,13.6,13.6,0,0,0,3.36-2,2.86,2.86,0,0,1,1.49,2.53,2.64,2.64,0,0,1-.78,1.79,6.89,6.89,0,0,1-2.11,1.53,13.65,13.65,0,0,1-3.11,1.06,17.09,17.09,0,0,1-3.82.4q-7.2,0-11.4-4.18t-4.19-12.23a20.62,20.62,0,0,1,1-6.74,14.74,14.74,0,0,1,2.86-5,12.28,12.28,0,0,1,4.38-3.15,13.86,13.86,0,0,1,5.53-1.1,13.08,13.08,0,0,1,5.16,1,11.72,11.72,0,0,1,4.07,2.82,13.21,13.21,0,0,1,2.67,4.32,15.13,15.13,0,0,1,1,5.48,2.89,2.89,0,0,1-.62,2.09,2.82,2.82,0,0,1-1.74.77Zm8.58-15a8,8,0,0,0-6.28,2.82q-2.47,2.83-2.61,8.07l17.09-2.52a10.14,10.14,0,0,0-2.39-6A7.36,7.36,0,0,0,728.25,460.25Z"/><path d="M753.35,487.35a7.35,7.35,0,0,1-.93.3,5.35,5.35,0,0,1-1.37.17c-1.78,0-2.67-.8-2.67-2.39V462.91a4.81,4.81,0,0,1,.53-2.43,5.9,5.9,0,0,1,1.77-1.76,15.52,15.52,0,0,1,4.38-2,21.79,21.79,0,0,1,6.25-.83q5,0,5,2.66a4.06,4.06,0,0,1-.19,1.23,3.35,3.35,0,0,1-.5,1c-.41-.09-1-.18-1.61-.27a16.76,16.76,0,0,0-2-.13,18.17,18.17,0,0,0-5,.63,14.89,14.89,0,0,0-3.6,1.5Z"/><path d="M782,455.93q5.4,0,8.57,2.59t3.17,8.17v15.75a3.89,3.89,0,0,1-.53,2.22,5.3,5.3,0,0,1-1.58,1.43,15.83,15.83,0,0,1-4,1.63,20.81,20.81,0,0,1-5.62.7q-5.85,0-9-2.46a8.41,8.41,0,0,1-3.2-7.11c0-2.92.89-5.13,2.67-6.61a14,14,0,0,1,7.52-2.76l8.82-.93v-1.86q0-3.31-1.86-4.85a7.72,7.72,0,0,0-5-1.53,14.85,14.85,0,0,0-4.9.8,25.75,25.75,0,0,0-4.11,1.8,6.29,6.29,0,0,1-.9-1.07,2.31,2.31,0,0,1-.4-1.33,2.49,2.49,0,0,1,.43-1.52,4.24,4.24,0,0,1,1.37-1.13,14.59,14.59,0,0,1,3.85-1.43A21.32,21.32,0,0,1,782,455.93Zm.06,28.1a14.2,14.2,0,0,0,4.32-.56,9.64,9.64,0,0,0,2.45-1.1v-9.63l-7.7.86a9.24,9.24,0,0,0-4.79,1.56,4.36,4.36,0,0,0-1.55,3.62,4.58,4.58,0,0,0,1.8,3.89A9,9,0,0,0,782.06,484Z"/><path d="M823.07,479.32a8.14,8.14,0,0,1-2.92,6.64q-2.92,2.39-8.45,2.39a20.3,20.3,0,0,1-4.35-.43,14.78,14.78,0,0,1-3.39-1.13,7,7,0,0,1-2.17-1.59,2.79,2.79,0,0,1-.78-1.83,3.12,3.12,0,0,1,.4-1.53,3.62,3.62,0,0,1,1.21-1.26,19.78,19.78,0,0,0,3.92,2.36,12.14,12.14,0,0,0,5.09,1q6.47,0,6.47-4.65,0-3.79-4.29-4.92l-5.16-1.46a11,11,0,0,1-5.53-3.09,7.73,7.73,0,0,1-1.74-5.22,8.77,8.77,0,0,1,.65-3.32,7.52,7.52,0,0,1,2-2.79,9.9,9.9,0,0,1,3.39-1.89,14.45,14.45,0,0,1,4.75-.7,15.54,15.54,0,0,1,7,1.36c1.77.91,2.67,2,2.67,3.16a2.92,2.92,0,0,1-.41,1.53,2.54,2.54,0,0,1-1.09,1,19.59,19.59,0,0,0-3.16-1.72,11.69,11.69,0,0,0-4.85-.94,7.74,7.74,0,0,0-4.44,1.13,3.66,3.66,0,0,0-1.65,3.19,3.78,3.78,0,0,0,.93,2.59,5.94,5.94,0,0,0,3.11,1.6l4.29,1.13A13.24,13.24,0,0,1,821,473.3,8.39,8.39,0,0,1,823.07,479.32Z"/><path d="M855.25,488.35a15.56,15.56,0,0,1-4.1-.53,13.06,13.06,0,0,1-3.17-1.26v12.89q-.3.12-.93.3a5.31,5.31,0,0,1-1.37.16q-2.67,0-2.67-2.46V462.37a4.43,4.43,0,0,1,.44-2.12,5.08,5.08,0,0,1,1.8-1.66,22.17,22.17,0,0,1,4-1.83,15.83,15.83,0,0,1,5.31-.83,17.55,17.55,0,0,1,5.75.93,12,12,0,0,1,4.66,2.89,13.9,13.9,0,0,1,3.1,5,20.63,20.63,0,0,1,1.16,7.3,22.72,22.72,0,0,1-1,7.18,13.88,13.88,0,0,1-2.89,5.08,11.59,11.59,0,0,1-4.44,3A15.39,15.39,0,0,1,855.25,488.35Zm-.68-4.38a9.1,9.1,0,0,0,7-2.83q2.64-2.82,2.64-9.07a17.31,17.31,0,0,0-.77-5.51,9.8,9.8,0,0,0-2.12-3.65,7.68,7.68,0,0,0-3.07-2,11.21,11.21,0,0,0-3.67-.6,10.54,10.54,0,0,0-3.79.6,18.69,18.69,0,0,0-2.8,1.33v19.6a10.27,10.27,0,0,0,2.8,1.53A10.88,10.88,0,0,0,854.57,484Z"/><path d="M903.6,472.14a21.26,21.26,0,0,1-1,6.71,14.86,14.86,0,0,1-2.83,5.12,12.18,12.18,0,0,1-4.44,3.25,15.66,15.66,0,0,1-11.68,0,12.45,12.45,0,0,1-4.47-3.25,14.59,14.59,0,0,1-2.86-5.12,21,21,0,0,1-1-6.71,20.42,20.42,0,0,1,1-6.71,15,15,0,0,1,2.89-5.12,12.45,12.45,0,0,1,4.47-3.25,15.35,15.35,0,0,1,11.56,0,12.18,12.18,0,0,1,4.44,3.25,15.43,15.43,0,0,1,2.86,5.12A20.68,20.68,0,0,1,903.6,472.14Zm-14.11-11.83a8,8,0,0,0-6.65,3.13q-2.42,3.12-2.42,8.7t2.39,8.74a8,8,0,0,0,6.68,3.09,7.84,7.84,0,0,0,6.65-3.13q2.36-3.12,2.36-8.7t-2.39-8.7A7.89,7.89,0,0,0,889.49,460.31Z"/><path d="M931.56,479.32a8.14,8.14,0,0,1-2.92,6.64q-2.92,2.39-8.45,2.39a20.3,20.3,0,0,1-4.35-.43,14.78,14.78,0,0,1-3.39-1.13,7.19,7.19,0,0,1-2.18-1.59,2.83,2.83,0,0,1-.77-1.83,3.12,3.12,0,0,1,.4-1.53,3.62,3.62,0,0,1,1.21-1.26,19.78,19.78,0,0,0,3.92,2.36,12.14,12.14,0,0,0,5.09,1q6.46,0,6.47-4.65,0-3.79-4.29-4.92l-5.16-1.46a11,11,0,0,1-5.53-3.09,7.73,7.73,0,0,1-1.74-5.22,8.77,8.77,0,0,1,.65-3.32,7.52,7.52,0,0,1,2-2.79,9.9,9.9,0,0,1,3.39-1.89,14.41,14.41,0,0,1,4.75-.7,15.47,15.47,0,0,1,7,1.36c1.78.91,2.68,2,2.68,3.16A2.92,2.92,0,0,1,930,462a2.54,2.54,0,0,1-1.09,1,19.59,19.59,0,0,0-3.16-1.72,11.69,11.69,0,0,0-4.85-.94,7.74,7.74,0,0,0-4.44,1.13,3.66,3.66,0,0,0-1.65,3.19,3.78,3.78,0,0,0,.93,2.59,5.94,5.94,0,0,0,3.11,1.6l4.29,1.13a13.24,13.24,0,0,1,6.33,3.35A8.39,8.39,0,0,1,931.56,479.32Z"/><path d="M938.64,447.09a3.3,3.3,0,0,1,.9-2.35,3,3,0,0,1,2.33-1,2.93,2.93,0,0,1,2.3,1,3.62,3.62,0,0,1,0,4.71,3,3,0,0,1-2.3,1,3.06,3.06,0,0,1-2.33-1A3.33,3.33,0,0,1,938.64,447.09Zm5.72,40.26a7.08,7.08,0,0,1-.94.3,5.27,5.27,0,0,1-1.36.17c-1.78,0-2.68-.8-2.68-2.39v-28.5a6.85,6.85,0,0,1,1-.3,5.65,5.65,0,0,1,1.4-.17q2.61,0,2.61,2.46Z"/><path d="M967.35,460.38a9.93,9.93,0,0,0-3.92.77,8.63,8.63,0,0,0-3.11,2.25,11.08,11.08,0,0,0-2.05,3.72,16.23,16.23,0,0,0-.74,5.09q0,5.71,2.67,8.73a9,9,0,0,0,7.15,3,10.83,10.83,0,0,0,4.35-.77,16.48,16.48,0,0,0,3.1-1.76,3.61,3.61,0,0,1,1.12,1,2.41,2.41,0,0,1,.44,1.46,3.27,3.27,0,0,1-1.81,2.69,11.36,11.36,0,0,1-4.72,1.56,8.75,8.75,0,0,1,1.43,5,6.82,6.82,0,0,1-1.86,5.05,6.58,6.58,0,0,1-4.85,1.86c-2.15,0-3.23-.79-3.23-2.39a3.42,3.42,0,0,1,.37-1.59h.93a4.51,4.51,0,0,0,3.27-1,3.76,3.76,0,0,0,1-2.76,7.36,7.36,0,0,0-.28-2,6.94,6.94,0,0,0-1-2,16.38,16.38,0,0,1-5.35-1.36,12.08,12.08,0,0,1-4.16-3.09,14.41,14.41,0,0,1-2.73-4.88,20.52,20.52,0,0,1-1-6.74,19.59,19.59,0,0,1,1.18-7.08,15.29,15.29,0,0,1,3.17-5.08,12.88,12.88,0,0,1,4.69-3.09,16.91,16.91,0,0,1,9.33-.66,10,10,0,0,1,2.82,1,6.14,6.14,0,0,1,1.84,1.49,2.74,2.74,0,0,1,.65,1.69,2.31,2.31,0,0,1-.44,1.4,2.91,2.91,0,0,1-1.12.93,17.07,17.07,0,0,0-3-1.73A10.45,10.45,0,0,0,967.35,460.38Z"/><path d="M994.19,455.93q5.4,0,8.57,2.59c2.12,1.73,3.17,4.45,3.17,8.17v15.75a3.81,3.81,0,0,1-.53,2.22,5.3,5.3,0,0,1-1.58,1.43,15.67,15.67,0,0,1-4,1.63,20.76,20.76,0,0,1-5.62.7c-3.89,0-6.91-.82-9-2.46a8.44,8.44,0,0,1-3.2-7.11c0-2.92.89-5.13,2.67-6.61a14,14,0,0,1,7.52-2.76l8.82-.93v-1.86q0-3.31-1.86-4.85a7.69,7.69,0,0,0-5-1.53,14.91,14.91,0,0,0-4.91.8,25.63,25.63,0,0,0-4.1,1.8,5.49,5.49,0,0,1-.9-1.07,2.32,2.32,0,0,1-.41-1.33,2.49,2.49,0,0,1,.44-1.52,4.19,4.19,0,0,1,1.36-1.13,14.66,14.66,0,0,1,3.86-1.43A21.23,21.23,0,0,1,994.19,455.93Zm-4.48-11.69a7.89,7.89,0,0,1,2.43.36c.74.25,1.44.5,2.08.77l1.83.76a4.4,4.4,0,0,0,1.68.37,2,2,0,0,0,1.65-.7,4.66,4.66,0,0,0,.77-1.83h.38a3.59,3.59,0,0,1,2,.57,2.14,2.14,0,0,1,.86,2,3.81,3.81,0,0,1-1.24,3,4.79,4.79,0,0,1-3.29,1.09,8.52,8.52,0,0,1-2.49-.36,22.51,22.51,0,0,1-2.2-.8l-1.9-.8a4.25,4.25,0,0,0-1.61-.36A1.81,1.81,0,0,0,989,449a5.28,5.28,0,0,0-.74,1.86h-.38a3.44,3.44,0,0,1-2-.6,2.17,2.17,0,0,1-.87-1.92,3.61,3.61,0,0,1,1.43-3A5.19,5.19,0,0,1,989.71,444.24ZM994.25,484a14.2,14.2,0,0,0,4.32-.56,9.47,9.47,0,0,0,2.45-1.1v-9.63l-7.7.86a9.24,9.24,0,0,0-4.79,1.56,4.36,4.36,0,0,0-1.55,3.62,4.58,4.58,0,0,0,1.8,3.89A9,9,0,0,0,994.25,484Z"/><path d="M1041.66,472.14a21.26,21.26,0,0,1-1,6.71,15.2,15.2,0,0,1-2.83,5.12,12.18,12.18,0,0,1-4.44,3.25,15.66,15.66,0,0,1-11.68,0,12.49,12.49,0,0,1-4.48-3.25,14.92,14.92,0,0,1-2.86-5.12,21.26,21.26,0,0,1-1-6.71,20.69,20.69,0,0,1,1-6.71,15.31,15.31,0,0,1,2.89-5.12,12.58,12.58,0,0,1,4.48-3.25,15.35,15.35,0,0,1,11.56,0,12.26,12.26,0,0,1,4.44,3.25,15.6,15.6,0,0,1,2.86,5.12A20.69,20.69,0,0,1,1041.66,472.14Zm-14.1-11.83a8,8,0,0,0-6.65,3.13q-2.43,3.12-2.43,8.7t2.4,8.74a8,8,0,0,0,6.68,3.09,7.82,7.82,0,0,0,6.64-3.13q2.37-3.12,2.37-8.7t-2.4-8.7A7.87,7.87,0,0,0,1027.56,460.31Z"/></svg>