<svg id="Camada_1" data-name="Camada 1" xmlns="http://www.w3.org/2000/svg" viewBox="0 0 400.67 109.7"><defs><style>.cls-1{fill:#92c3fb;}.cls-2{fill:#fff;}.cls-3{fill:#3565a3;}.cls-4{fill:#a6e9fc;}</style></defs><path class="cls-1" d="M189.19,60.15a51.48,51.48,0,0,1-7,25.86,58.72,58.72,0,0,1-21.81,4.17,58.34,58.34,0,0,1-27.81-7c17.21-8.7,29.12-25.63,29.93-45.29,0-.71,0-1.42,0-2.14a51.47,51.47,0,0,0-6.12-24.36C175.78,19.92,189.19,38.54,189.19,60.15Z" transform="translate(-75.33 -5.3)"/><path class="cls-2" d="M160.42,91.37a59.7,59.7,0,0,1-28.37-7.12l-2-1.09,2-1c17.28-8.73,28.5-25.7,29.27-44.27,0-.71,0-1.42,0-2.09a49.85,49.85,0,0,0-6-23.79l-1.64-3.05,3.17,1.39c20.32,8.94,33.45,28.5,33.45,49.83a52.77,52.77,0,0,1-7.13,26.46l-.2.35-.39.16A59.65,59.65,0,0,1,160.42,91.37Zm-25.23-8.19A57.52,57.52,0,0,0,160.42,89a57.18,57.18,0,0,0,21-3.93,50.21,50.21,0,0,0,6.6-24.9c0-19.28-11.25-37.06-28.94-46.17a52.13,52.13,0,0,1,4.72,21.79c0,.7,0,1.44-.05,2.19C163,56.65,152.09,73.78,135.19,83.18Z" transform="translate(-75.33 -5.3)"/><path class="cls-3" d="M182.23,86c-9.59,16.57-28.1,27.8-49.37,27.8C111,113.81,92,101.9,82.65,84.5a51.34,51.34,0,0,1-4.79-12.67,54,54,0,0,1,26.23-34.45C104.41,57,115.82,74.1,132.61,83.2a58.34,58.34,0,0,0,27.81,7A58.72,58.72,0,0,0,182.23,86Z" transform="translate(-75.33 -5.3)"/><path class="cls-2" d="M132.86,115c-21.73,0-41.38-11.47-51.27-29.93a53,53,0,0,1-4.89-13l-.06-.28.06-.27a55.33,55.33,0,0,1,26.8-35.22l1.75-1,0,2c.31,18.47,11,35.63,27.9,44.79a57.85,57.85,0,0,0,48.61,2.75L185,83.61l-1.74,3C173.13,104.12,153.82,115,132.86,115ZM79.09,71.84a50.65,50.65,0,0,0,4.61,12.1c9.47,17.68,28.31,28.67,49.16,28.67,18.91,0,36.43-9.22,46.52-24.29a60.23,60.23,0,0,1-47.33-4.07C115,75,104,58,103,39.43A52.77,52.77,0,0,0,79.09,71.84Z" transform="translate(-75.33 -5.3)"/><path class="cls-4" d="M162.58,35.77c0,.72,0,1.43,0,2.14a58.83,58.83,0,0,0-58.45-.53A54,54,0,0,0,77.86,71.83a51.2,51.2,0,0,1-1.34-11.68c0-22.27,14.24-41.37,34.53-49.49a59.09,59.09,0,0,1,45.41.75A51.47,51.47,0,0,1,162.58,35.77Z" transform="translate(-75.33 -5.3)"/><path class="cls-2" d="M77.87,77.09l-1.17-5a52.74,52.74,0,0,1-1.37-12c0-22.16,13.84-42,35.27-50.6a60.34,60.34,0,0,1,46.34.77l.38.17.19.36a52.19,52.19,0,0,1,6.27,24.92c0,.7,0,1.44-.05,2.19l-.08,2-1.72-1a57.59,57.59,0,0,0-57.25-.52A52.86,52.86,0,0,0,79,72.11Zm55-69.4a57.23,57.23,0,0,0-21.37,4.08C91,20,77.71,39,77.71,60.15a49.36,49.36,0,0,0,.42,6.43A55.67,55.67,0,0,1,103.5,36.34a60,60,0,0,1,57.89-.46v-.11a49.88,49.88,0,0,0-5.79-23.43A57,57,0,0,0,132.86,7.69Z" transform="translate(-75.33 -5.3)"/><path class="cls-3" d="M217,44.34a9.61,9.61,0,0,1,.23,2.21,5.48,5.48,0,0,1-.69,3.12,2.18,2.18,0,0,1-1.86,1H210V77a9,9,0,0,1-1.42.34,11.64,11.64,0,0,1-2,.17,3.88,3.88,0,0,1-3.08-1,5.89,5.89,0,0,1-.85-3.68V50.63h-6.32a8.32,8.32,0,0,1-.53-1.64,10.27,10.27,0,0,1-.23-2.21,5.46,5.46,0,0,1,.69-3.12,2.17,2.17,0,0,1,1.87-1h18.37A7.87,7.87,0,0,1,217,44.34Z" transform="translate(-75.33 -5.3)"/><path class="cls-3" d="M225.69,77a11,11,0,0,1-1.32.34,9.81,9.81,0,0,1-1.86.17,4.05,4.05,0,0,1-3-.94q-.93-.93-.93-3.6V56.16a6.18,6.18,0,0,1,.63-2.86,6.73,6.73,0,0,1,1.72-2.12,10.24,10.24,0,0,1,3.41-1.82,13.49,13.49,0,0,1,4.08-.62q4.56,0,4.56,4.36a8.13,8.13,0,0,1-.21,1.9,7.3,7.3,0,0,1-.5,1.5,9,9,0,0,0-2.3-.22,7.77,7.77,0,0,0-2.24.34,6.25,6.25,0,0,0-2,1Z" transform="translate(-75.33 -5.3)"/><path class="cls-3" d="M243.52,48.68a12.77,12.77,0,0,1,4.12.63,8.18,8.18,0,0,1,3.19,1.89,8.58,8.58,0,0,1,2,3.24,13.6,13.6,0,0,1,.71,4.62V71.75a4.37,4.37,0,0,1-.61,2.41,6.8,6.8,0,0,1-1.44,1.62Q248.79,78,243.86,78a13.05,13.05,0,0,1-4-.57,8.16,8.16,0,0,1-3.06-1.7,7.38,7.38,0,0,1-2-2.89,11.11,11.11,0,0,1-.69-4.08,9.29,9.29,0,0,1,1.71-6,8,8,0,0,1,5.32-2.61l5.48-.79v-.4a2.62,2.62,0,0,0-1.07-2.35,5.55,5.55,0,0,0-3.07-.71,10.83,10.83,0,0,0-3.08.45,14,14,0,0,0-2.74,1.14,4,4,0,0,1-.92-1.56,6.45,6.45,0,0,1-.38-2.18,4.59,4.59,0,0,1,.52-2.36,4.38,4.38,0,0,1,1.62-1.5,9.71,9.71,0,0,1,2.86-.9A18.39,18.39,0,0,1,243.52,48.68ZM243.86,71a6.68,6.68,0,0,0,1.57-.2,3.08,3.08,0,0,0,1.27-.54V65.69l-3,.34a3.8,3.8,0,0,0-1.93.68,2,2,0,0,0-.75,1.7,2.62,2.62,0,0,0,.65,1.84A2.84,2.84,0,0,0,243.86,71Zm2.51-36.51a4.09,4.09,0,0,1,3.26,1.25,4.17,4.17,0,0,1,1.09,2.83,5.09,5.09,0,0,1-.42,2.19,9.32,9.32,0,0,1-1.42,2l-4,4.42A3.33,3.33,0,0,1,242.1,46a4,4,0,0,1-.92-2.55,4.31,4.31,0,0,1,.19-1.3,5.41,5.41,0,0,1,.77-1.48Z" transform="translate(-75.33 -5.3)"/><path class="cls-3" d="M264.74,51.83h6.87a11.86,11.86,0,0,1,.48,1.56,8.8,8.8,0,0,1,.23,2.07,4.93,4.93,0,0,1-.65,2.86,2,2,0,0,1-1.74.88h-4.81v18a9.38,9.38,0,0,1-1.32.34,9.81,9.81,0,0,1-1.86.17,4.09,4.09,0,0,1-3-.94c-.61-.62-.92-1.82-.92-3.6V49.67a14.89,14.89,0,0,1,.74-5,9.48,9.48,0,0,1,2-3.4,7.58,7.58,0,0,1,3-2,10.28,10.28,0,0,1,3.62-.63,7.58,7.58,0,0,1,4.56,1.11,4.42,4.42,0,0,1,1.46,3.77,5.74,5.74,0,0,1-.35,2,4.43,4.43,0,0,1-.78,1.36,14.32,14.32,0,0,0-1.65-.48,9,9,0,0,0-2-.2,4.29,4.29,0,0,0-2.8.82,3.52,3.52,0,0,0-1,2.86Z" transform="translate(-75.33 -5.3)"/><path class="cls-3" d="M281.11,66.62a4.63,4.63,0,0,0,2,2.86,5.9,5.9,0,0,0,3.09.82,9.6,9.6,0,0,0,3.35-.59,9.13,9.13,0,0,0,2.56-1.39,4.52,4.52,0,0,1,1.13,1.58,5.3,5.3,0,0,1,.46,2.16,4.84,4.84,0,0,1-.59,2.44,5,5,0,0,1-1.65,1.7,7.75,7.75,0,0,1-2.54,1,15.3,15.3,0,0,1-3.22.31,11.26,11.26,0,0,1-4.58-.93,10,10,0,0,1-3.66-2.81A13.43,13.43,0,0,1,275,69.05a22.32,22.32,0,0,1-.88-6.63A20.36,20.36,0,0,1,275,56a12.82,12.82,0,0,1,2.39-4.42A9.37,9.37,0,0,1,280.77,49a9.7,9.7,0,0,1,3.86-.82,9,9,0,0,1,4,.91,9.5,9.5,0,0,1,3.14,2.49,11.25,11.25,0,0,1,2,3.8,15.51,15.51,0,0,1,.72,4.82,4.71,4.71,0,0,1-.8,2.95,3.59,3.59,0,0,1-2.22,1.3Zm3.56-10.91A3.31,3.31,0,0,0,282,57a6.59,6.59,0,0,0-1.28,3.68l7.12-1.59A4.65,4.65,0,0,0,287.6,58a4.17,4.17,0,0,0-.59-1.1,2.76,2.76,0,0,0-1-.83A3,3,0,0,0,284.67,55.71Z" transform="translate(-75.33 -5.3)"/><path class="cls-3" d="M310.54,75a8,8,0,0,1-1.87.7,9.4,9.4,0,0,1-2.28.26,9.26,9.26,0,0,1-3.58-.71,7.45,7.45,0,0,1-3-2.32,12.29,12.29,0,0,1-2-4.17,22.38,22.38,0,0,1-.75-6.24,21.12,21.12,0,0,1,.77-6A12.67,12.67,0,0,1,300,52.2a8.87,8.87,0,0,1,3.41-2.64,11,11,0,0,1,4.48-.88,11.73,11.73,0,0,1,2.3.23,12.07,12.07,0,0,1,2.11.62,15.6,15.6,0,0,1,1.78.85,7.36,7.36,0,0,1,1.34,1,6.11,6.11,0,0,1,1.32,1.78,5.78,5.78,0,0,1,.48,2.52v21a14.87,14.87,0,0,1-.81,5.18,10.06,10.06,0,0,1-2.26,3.63,9,9,0,0,1-3.39,2.13,12.66,12.66,0,0,1-4.17.68,14.86,14.86,0,0,1-4-.48,6.9,6.9,0,0,1-2.72-1.39,5,5,0,0,1-1.5-3.86,7,7,0,0,1,.39-2.38,4.62,4.62,0,0,1,.9-1.59,12,12,0,0,0,2.75,1.53,8.26,8.26,0,0,0,3.2.63,5.74,5.74,0,0,0,3.56-1,3.88,3.88,0,0,0,1.34-3.29Zm-2.81-6.24a4.08,4.08,0,0,0,1.49-.26,4.33,4.33,0,0,0,1.19-.7V56.9a6.41,6.41,0,0,0-.94-.48,3.75,3.75,0,0,0-4.21,1.3,8.21,8.21,0,0,0-1.13,4.85c0,2.38.34,4,1,4.88A3.13,3.13,0,0,0,307.73,68.75Z" transform="translate(-75.33 -5.3)"/><path class="cls-3" d="M342.68,63.31a22.56,22.56,0,0,1-.77,6.12,14,14,0,0,1-2.22,4.62,9.62,9.62,0,0,1-8,3.94,10.12,10.12,0,0,1-4.53-1,9.72,9.72,0,0,1-3.45-2.89,14,14,0,0,1-2.22-4.62,22.91,22.91,0,0,1-.77-6.18,21.66,21.66,0,0,1,.79-6.07,14.21,14.21,0,0,1,2.24-4.62,10.15,10.15,0,0,1,3.46-2.92,9.75,9.75,0,0,1,4.48-1,9.51,9.51,0,0,1,4.47,1,10.35,10.35,0,0,1,3.46,3,14.11,14.11,0,0,1,2.24,4.62A21.38,21.38,0,0,1,342.68,63.31Zm-11-7.09A3,3,0,0,0,329,58.06a11.6,11.6,0,0,0-1,5.25,11.64,11.64,0,0,0,1,5.35,3,3,0,0,0,5.45,0,11.71,11.71,0,0,0,1-5.33,11.6,11.6,0,0,0-1-5.25A3,3,0,0,0,331.72,56.22Z" transform="translate(-75.33 -5.3)"/><path class="cls-3" d="M380.31,59.36a27.92,27.92,0,0,1-1,7.85,17,17,0,0,1-2.79,5.73,12.05,12.05,0,0,1-14.75,3.48,11.67,11.67,0,0,1-4.19-3.51,17.77,17.77,0,0,1-2.76-5.73,27.6,27.6,0,0,1-1-7.82,27.21,27.21,0,0,1,1-7.82,17.26,17.26,0,0,1,2.81-5.7,12.07,12.07,0,0,1,4.18-3.49,12,12,0,0,1,10.42,0,12.25,12.25,0,0,1,4.21,3.49,17.28,17.28,0,0,1,2.83,5.7A27.21,27.21,0,0,1,380.31,59.36Zm-7.53.49q0-5.1-1.55-7.65a4.67,4.67,0,0,0-8.31,0q-1.57,2.52-1.57,7.68t1.55,7.71a4.68,4.68,0,0,0,8.33,0Q372.78,65,372.78,59.85Z" transform="translate(-75.33 -5.3)"/><path class="cls-3" d="M404,77a11,11,0,0,1-1.32.34,9.81,9.81,0,0,1-1.86.17,4.05,4.05,0,0,1-3-.94c-.62-.62-.92-1.82-.92-3.6V59.62a3.65,3.65,0,0,0-.78-2.58,2.69,2.69,0,0,0-2-.82,4.51,4.51,0,0,0-1.57.28,7,7,0,0,0-1.4.74V77a11,11,0,0,1-1.32.34,9.81,9.81,0,0,1-1.86.17,4.09,4.09,0,0,1-3-.94c-.61-.62-.92-1.82-.92-3.6V55.94a5.65,5.65,0,0,1,.48-2.5,6.26,6.26,0,0,1,1.32-1.75,10.52,10.52,0,0,1,3.58-2.19,13.56,13.56,0,0,1,4.79-.82q4.74,0,7.29,2.81T404,59.34Z" transform="translate(-75.33 -5.3)"/><path class="cls-3" d="M412.5,77.54a4.05,4.05,0,0,1-3-.94q-.93-.93-.93-3.6V40.12a9.38,9.38,0,0,1,1.32-.34,10,10,0,0,1,1.87-.17,4.07,4.07,0,0,1,3,.94c.61.62.92,1.82.92,3.6V77a11,11,0,0,1-1.32.34A9.81,9.81,0,0,1,412.5,77.54Z" transform="translate(-75.33 -5.3)"/><path class="cls-3" d="M420.08,41.88a6,6,0,0,1,1.06-3.63,3.45,3.45,0,0,1,5.65,0,6,6,0,0,1,1.07,3.63,6,6,0,0,1-1.07,3.63,3.45,3.45,0,0,1-5.65,0A6,6,0,0,1,420.08,41.88Zm.33,8a9.38,9.38,0,0,1,1.32-.34,9.81,9.81,0,0,1,1.86-.17,4.14,4.14,0,0,1,3,.93c.61.63.92,1.83.92,3.6V77a11,11,0,0,1-1.32.34,9.81,9.81,0,0,1-1.86.17,4.09,4.09,0,0,1-3-.94c-.61-.62-.92-1.82-.92-3.6Z" transform="translate(-75.33 -5.3)"/><path class="cls-3" d="M452.06,77a11,11,0,0,1-1.32.34,10,10,0,0,1-1.87.17,4.07,4.07,0,0,1-3-.94c-.61-.62-.92-1.82-.92-3.6V59.62a3.7,3.7,0,0,0-.77-2.58,2.7,2.7,0,0,0-2-.82,4.47,4.47,0,0,0-1.57.28,7.31,7.31,0,0,0-1.41.74V77a10.07,10.07,0,0,1-1.32.34,9.81,9.81,0,0,1-1.86.17,4.07,4.07,0,0,1-3-.94c-.62-.62-.92-1.82-.92-3.6V55.94a5.65,5.65,0,0,1,.48-2.5,6.26,6.26,0,0,1,1.32-1.75,10.52,10.52,0,0,1,3.58-2.19,13.48,13.48,0,0,1,4.79-.82q4.72,0,7.28,2.81c1.7,1.87,2.56,4.49,2.56,7.85Z" transform="translate(-75.33 -5.3)"/><path class="cls-3" d="M462.56,66.62a4.63,4.63,0,0,0,2,2.86,5.91,5.91,0,0,0,3.1.82,9.59,9.59,0,0,0,3.34-.59,9,9,0,0,0,2.56-1.39,4.52,4.52,0,0,1,1.13,1.58,5.14,5.14,0,0,1,.46,2.16,4.84,4.84,0,0,1-.59,2.44,5,5,0,0,1-1.65,1.7,7.78,7.78,0,0,1-2.53,1,15.4,15.4,0,0,1-3.23.31,11.26,11.26,0,0,1-4.58-.93,10,10,0,0,1-3.66-2.81,13.77,13.77,0,0,1-2.43-4.71,22.32,22.32,0,0,1-.88-6.63,20.36,20.36,0,0,1,.9-6.43,13,13,0,0,1,2.39-4.42A9.31,9.31,0,0,1,462.23,49a9.65,9.65,0,0,1,3.85-.82,9,9,0,0,1,4,.91,9.7,9.7,0,0,1,3.14,2.49,11.42,11.42,0,0,1,2,3.8,15.82,15.82,0,0,1,.71,4.82,4.71,4.71,0,0,1-.8,2.95,3.59,3.59,0,0,1-2.22,1.3Zm3.56-11.4a3.31,3.31,0,0,0-2.66,1.31,6.62,6.62,0,0,0-1.28,3.68l7.12-1.59a4.65,4.65,0,0,0-.25-1.16,4.17,4.17,0,0,0-.59-1.1,2.86,2.86,0,0,0-1-.83A3,3,0,0,0,466.12,55.22Z" transform="translate(-75.33 -5.3)"/></svg>