<svg id="Camada_1" data-name="Camada 1" xmlns="http://www.w3.org/2000/svg" viewBox="0 0 221 65.63"><defs><style>.cls-1{fill:#92c3fb;}.cls-2{fill:#fff;}.cls-3{fill:#3565a3;}.cls-4{fill:#a6e9fc;}</style></defs><path class="cls-1" d="M97.89,15.55a7.63,7.63,0,0,1-.19,1.67,7.47,7.47,0,0,1-.8,2,8,8,0,0,1-3.07.6,8.11,8.11,0,0,1-3.93-1,7.67,7.67,0,0,0,4.23-6.49v-.3a7.45,7.45,0,0,0-.86-3.49A7.67,7.67,0,0,1,97.89,15.55Z"/><path class="cls-2" d="M93.83,20a8.33,8.33,0,0,1-4-1l-.28-.15.29-.15A7.52,7.52,0,0,0,94,12.36v-.3a7.23,7.23,0,0,0-.84-3.41l-.23-.44.45.2a7.87,7.87,0,0,1,4.71,7.14,7.53,7.53,0,0,1-.19,1.71,7.75,7.75,0,0,1-.81,2.08l0,.05,0,0A8.24,8.24,0,0,1,93.83,20Zm-3.56-1.17a8.07,8.07,0,0,0,6.52.27,7.2,7.2,0,0,0,.74-1.93,7,7,0,0,0,.19-1.64,7.53,7.53,0,0,0-4.09-6.62,7.5,7.5,0,0,1,.67,3.13c0,.1,0,.2,0,.31A7.86,7.86,0,0,1,90.27,18.85Z"/><path class="cls-3" d="M96.9,19.25A8.07,8.07,0,0,1,82.85,19a7.22,7.22,0,0,1-.67-1.82,7.71,7.71,0,0,1,3.7-4.93,7.63,7.63,0,0,0,4,6.56,8.11,8.11,0,0,0,3.93,1A8,8,0,0,0,96.9,19.25Z"/><path class="cls-2" d="M89.94,23.41a8.1,8.1,0,0,1-7.23-4.29,7.34,7.34,0,0,1-.7-1.86v-.07a7.89,7.89,0,0,1,3.79-5.05L86,12v.28A7.51,7.51,0,0,0,90,18.7a8.07,8.07,0,0,0,6.86.4l.45-.19-.24.43A8.18,8.18,0,0,1,89.94,23.41Zm-7.59-6.19A7.31,7.31,0,0,0,83,19a7.92,7.92,0,0,0,13.5.63A8.44,8.44,0,0,1,89.82,19a7.88,7.88,0,0,1-4.1-6.42A7.57,7.57,0,0,0,82.35,17.22Z"/><path class="cls-4" d="M94.13,12.06v.3a8.19,8.19,0,0,0-8.25-.07,7.71,7.71,0,0,0-3.7,4.93A7.07,7.07,0,0,1,82,15.55a7.69,7.69,0,0,1,4.87-7.09,8.18,8.18,0,0,1,6.41.11A7.45,7.45,0,0,1,94.13,12.06Z"/><path class="cls-2" d="M82.18,18,82,17.26a8.15,8.15,0,0,1-.19-1.71,7.83,7.83,0,0,1,5-7.25,8.36,8.36,0,0,1,3.14-.61,8.27,8.27,0,0,1,3.4.72l0,0,0,.06a7.64,7.64,0,0,1,.88,3.57c0,.1,0,.2,0,.31v.29L94,12.51A8,8,0,0,0,86,12.44a7.52,7.52,0,0,0-3.62,4.82ZM89.94,8a8,8,0,0,0-3,.59,7.5,7.5,0,0,0-4.76,6.93,7,7,0,0,0,.06.92,7.93,7.93,0,0,1,3.58-4.33A8.35,8.35,0,0,1,94,12.07h0a7.27,7.27,0,0,0-.81-3.36A8,8,0,0,0,89.94,8Z"/><path d="M100.14,20a.09.09,0,0,1-.06,0H100a.22.22,0,0,1-.12,0,.09.09,0,0,1-.07-.06l-.11-.25-.13-.35c0-.13-.09-.27-.14-.41s-.09-.28-.14-.42l-.12-.4c0-.13-.07-.25-.1-.36s0,0,.06-.05a.16.16,0,0,1,.09,0,.11.11,0,0,1,.1,0,.19.19,0,0,1,0,.1c.11.33.21.65.31,1s.2.62.31.94h0c0-.14.1-.3.15-.46s.11-.33.17-.51l.15-.52c0-.18.09-.35.13-.52a.21.21,0,0,1,.12,0,.12.12,0,0,1,.1,0,.11.11,0,0,1,0,.1.8.8,0,0,1,0,.21c0,.11-.06.23-.1.37s-.09.29-.14.45-.11.31-.16.46-.1.28-.15.4A2.07,2.07,0,0,1,100.14,20Z"/><path d="M102.63,19.14a1.12,1.12,0,0,1-.06.38.9.9,0,0,1-.16.29.67.67,0,0,1-.25.19.94.94,0,0,1-.66,0,.76.76,0,0,1-.25-.19.9.9,0,0,1-.16-.29,1.13,1.13,0,0,1,0-.38,1.19,1.19,0,0,1,0-.39.92.92,0,0,1,.17-.29.79.79,0,0,1,.25-.19.83.83,0,0,1,.32-.06.88.88,0,0,1,.33.06.79.79,0,0,1,.25.19.9.9,0,0,1,.16.29A1.18,1.18,0,0,1,102.63,19.14Zm-.8-.68a.43.43,0,0,0-.37.18.8.8,0,0,0-.14.5.82.82,0,0,0,.14.5.49.49,0,0,0,.75,0,.77.77,0,0,0,.13-.49.8.8,0,0,0-.13-.5A.45.45,0,0,0,101.83,18.46Z"/><path d="M103.81,18.46a.54.54,0,0,0-.22.05.37.37,0,0,0-.17.13.53.53,0,0,0-.12.21.85.85,0,0,0,0,.29.75.75,0,0,0,.15.5.48.48,0,0,0,.4.17.62.62,0,0,0,.25,0,1,1,0,0,0,.17-.1.09.09,0,0,1,.06.06.11.11,0,0,1,0,.08.14.14,0,0,1,0,.1.31.31,0,0,1-.11.08L104,20a.65.65,0,0,1-.2,0,1.27,1.27,0,0,1-.34,0,.78.78,0,0,1-.26-.17,1,1,0,0,1-.18-.29,1.27,1.27,0,0,1-.06-.41,1,1,0,0,1,.07-.4.75.75,0,0,1,.18-.3.78.78,0,0,1,.26-.17.87.87,0,0,1,.32-.06l.21,0a.34.34,0,0,1,.15.06.31.31,0,0,1,.11.08.22.22,0,0,1,0,.1.11.11,0,0,1,0,.08l-.06.05a.91.91,0,0,0-.17-.09A.54.54,0,0,0,103.81,18.46Z"/><path d="M104.89,19.32a.55.55,0,0,0,.6.49.59.59,0,0,0,.27,0,1.06,1.06,0,0,0,.19-.11.14.14,0,0,1,.08.14.13.13,0,0,1,0,.1.38.38,0,0,1-.12.09.49.49,0,0,1-.17.06.78.78,0,0,1-.22,0,.86.86,0,0,1-.64-.24.93.93,0,0,1-.24-.69,1.14,1.14,0,0,1,.06-.39.9.9,0,0,1,.16-.29.64.64,0,0,1,.25-.18.78.78,0,0,1,.31-.06.72.72,0,0,1,.29.06.6.6,0,0,1,.23.16,1,1,0,0,1,.15.24.83.83,0,0,1,0,.32.21.21,0,0,1,0,.12.15.15,0,0,1-.1,0Zm.49-.86a.45.45,0,0,0-.36.16.76.76,0,0,0-.15.46l1-.14a.58.58,0,0,0-.14-.35A.39.39,0,0,0,105.38,18.46Zm0-.79a1.46,1.46,0,0,1-.16.19l-.15.18-.1,0a.1.1,0,0,1,0-.09.08.08,0,0,1,0-.07l0-.07.22-.25.08-.07.08,0,.09,0,.08.07.29.38a.12.12,0,0,1,0,.09s0,0-.08,0l-.07,0,0-.05Z"/><path d="M108.22,18.56a.4.4,0,0,0-.3-.1.69.69,0,0,0-.25,0,.51.51,0,0,0-.18.09V20h-.13c-.1,0-.15,0-.15-.13V18.6a.25.25,0,0,1,0-.13.31.31,0,0,1,.1-.1.9.9,0,0,1,.24-.11,1.21,1.21,0,0,1,.34-.05.79.79,0,0,1,.51.15.64.64,0,0,1,.18.5V20h-.13c-.1,0-.15,0-.15-.13v-1A.4.4,0,0,0,108.22,18.56Z"/><path d="M109.71,18.21a.73.73,0,0,1,.48.15.56.56,0,0,1,.18.46v.91a.21.21,0,0,1,0,.12.24.24,0,0,1-.09.08.9.9,0,0,1-.22.1,1.47,1.47,0,0,1-.32,0,.84.84,0,0,1-.51-.14.5.5,0,0,1-.18-.41.48.48,0,0,1,.15-.38.81.81,0,0,1,.43-.16l.49-.05v-.11a.33.33,0,0,0-.1-.27.44.44,0,0,0-.29-.09.81.81,0,0,0-.27.05,1,1,0,0,0-.23.1l0-.06a.13.13,0,0,1,0-.08.16.16,0,0,1,0-.09.18.18,0,0,1,.08-.06.66.66,0,0,1,.21-.08A1.12,1.12,0,0,1,109.71,18.21Zm0,1.61a.62.62,0,0,0,.25,0,.4.4,0,0,0,.13-.06v-.55l-.43,0a.48.48,0,0,0-.27.09.26.26,0,0,0-.09.21.29.29,0,0,0,.1.22A.52.52,0,0,0,109.71,19.82Z"/><path d="M112,19.55a.46.46,0,0,1-.16.38.74.74,0,0,1-.48.13.9.9,0,0,1-.24,0A.69.69,0,0,1,111,20a.25.25,0,0,1-.13-.09.14.14,0,0,1,0-.1.29.29,0,0,1,0-.09.23.23,0,0,1,.07-.07,1.16,1.16,0,0,0,.22.13.65.65,0,0,0,.29.06c.24,0,.36-.09.36-.26a.27.27,0,0,0-.24-.28l-.29-.09a.65.65,0,0,1-.31-.17.44.44,0,0,1-.1-.3.41.41,0,0,1,0-.19.36.36,0,0,1,.11-.16.59.59,0,0,1,.19-.11.77.77,0,0,1,.27,0,.87.87,0,0,1,.39.08c.11.05.16.11.16.18a.16.16,0,0,1,0,.09.1.1,0,0,1-.06.05l-.18-.1a.72.72,0,0,0-.27-.05.44.44,0,0,0-.25.06.23.23,0,0,0-.09.19.21.21,0,0,0,0,.15.3.3,0,0,0,.17.09l.25.06a.78.78,0,0,1,.35.19A.5.5,0,0,1,112,19.55Z"/><path d="M113.83,20.06a.91.91,0,0,1-.23,0,.54.54,0,0,1-.17-.07v.74l-.06,0h-.07a.13.13,0,0,1-.15-.15v-2a.22.22,0,0,1,0-.12.31.31,0,0,1,.1-.1,1,1,0,0,1,.23-.1.85.85,0,0,1,.3-.05,1.13,1.13,0,0,1,.32.05.65.65,0,0,1,.26.17.8.8,0,0,1,.18.28,1.33,1.33,0,0,1,.06.42,1.22,1.22,0,0,1-.06.41.63.63,0,0,1-.16.29.64.64,0,0,1-.25.18A1.07,1.07,0,0,1,113.83,20.06Zm0-.25a.5.5,0,0,0,.39-.16.75.75,0,0,0,.15-.52.91.91,0,0,0,0-.31.42.42,0,0,0-.11-.21.57.57,0,0,0-.18-.12.64.64,0,0,0-.2,0,.69.69,0,0,0-.22,0l-.15.08v1.12a.38.38,0,0,0,.15.09A.69.69,0,0,0,113.8,19.81Z"/><path d="M115.34,20h-.13c-.1,0-.15,0-.15-.13V18.61a.26.26,0,0,1,0-.14.31.31,0,0,1,.1-.1.9.9,0,0,1,.24-.11,1.29,1.29,0,0,1,.35-.05c.19,0,.28.05.28.15a.15.15,0,0,1,0,.07.14.14,0,0,1,0,.06l-.1,0h-.11a1.18,1.18,0,0,0-.28,0,.53.53,0,0,0-.2.09Z"/><path d="M116.37,17.7a.21.21,0,0,1,0-.13.17.17,0,0,1,.26,0,.21.21,0,0,1,0,.13.22.22,0,0,1,0,.14.19.19,0,0,1-.26,0A.22.22,0,0,1,116.37,17.7Zm.32,2.31h-.13c-.1,0-.15,0-.15-.13V18.27l0,0h.08c.1,0,.15.05.15.14Z"/><path d="M119.19,18.55a.37.37,0,0,0-.26-.09.6.6,0,0,0-.41.17.5.5,0,0,1,0,.17V20h-.13c-.1,0-.15,0-.15-.13V18.82a.33.33,0,0,0-.1-.27.36.36,0,0,0-.26-.09.46.46,0,0,0-.21,0,.39.39,0,0,0-.17.09V20h-.13c-.1,0-.15,0-.15-.13V18.6a.28.28,0,0,1,0-.13.31.31,0,0,1,.1-.1.9.9,0,0,1,.24-.11,1,1,0,0,1,.29-.05,1,1,0,0,1,.31.05.62.62,0,0,1,.2.15,1,1,0,0,1,.23-.14.75.75,0,0,1,.31-.06.64.64,0,0,1,.45.15.55.55,0,0,1,.17.45V20h-.13c-.1,0-.15,0-.15-.13V18.82A.37.37,0,0,0,119.19,18.55Z"/><path d="M120.29,19.32a.55.55,0,0,0,.6.49.59.59,0,0,0,.27,0,1.06,1.06,0,0,0,.19-.11.14.14,0,0,1,.08.14.13.13,0,0,1,0,.1.38.38,0,0,1-.12.09.49.49,0,0,1-.17.06.78.78,0,0,1-.22,0,.86.86,0,0,1-.64-.24.93.93,0,0,1-.24-.69,1.14,1.14,0,0,1,.06-.39.9.9,0,0,1,.16-.29.64.64,0,0,1,.25-.18.78.78,0,0,1,.31-.06.72.72,0,0,1,.29.06.6.6,0,0,1,.23.16,1,1,0,0,1,.15.24,1.07,1.07,0,0,1,0,.32.21.21,0,0,1,0,.12.18.18,0,0,1-.1,0Zm.49-.86a.44.44,0,0,0-.36.16.76.76,0,0,0-.15.46l1-.14a.58.58,0,0,0-.14-.35A.39.39,0,0,0,120.78,18.46Z"/><path d="M122.19,20h-.13c-.1,0-.15,0-.15-.13V18.61a.26.26,0,0,1,0-.14.31.31,0,0,1,.1-.1.84.84,0,0,1,.25-.11,1.23,1.23,0,0,1,.35-.05c.18,0,.28.05.28.15s0,.05,0,.07l0,.06-.09,0h-.11a1.19,1.19,0,0,0-.29,0,.53.53,0,0,0-.2.09Z"/><path d="M123.8,18.21a.74.74,0,0,1,.49.15.59.59,0,0,1,.17.46v.91a.21.21,0,0,1,0,.12l-.08.08a1,1,0,0,1-.23.1,1.37,1.37,0,0,1-.31,0,.84.84,0,0,1-.51-.14.5.5,0,0,1-.18-.41.48.48,0,0,1,.15-.38.81.81,0,0,1,.42-.16l.5-.05v-.11a.34.34,0,0,0-.11-.27.41.41,0,0,0-.28-.09.87.87,0,0,0-.28.05l-.23.1-.05-.06a.24.24,0,0,1,0-.08.29.29,0,0,1,0-.09l.08-.06a.63.63,0,0,1,.22-.08A1.09,1.09,0,0,1,123.8,18.21Zm0,1.61a.57.57,0,0,0,.24,0l.14-.06v-.55l-.44,0a.48.48,0,0,0-.27.09.29.29,0,0,0-.08.21.26.26,0,0,0,.1.22A.52.52,0,0,0,123.81,19.82Z"/><path d="M126.12,19.55a.47.47,0,0,1-.17.38.73.73,0,0,1-.47.13,1,1,0,0,1-.25,0A.84.84,0,0,1,125,20a.27.27,0,0,1-.12-.09.16.16,0,0,1,0-.1.16.16,0,0,1,0-.09.13.13,0,0,1,.06-.07l.22.13a.68.68,0,0,0,.29.06c.24,0,.37-.09.37-.26s-.08-.24-.25-.28l-.29-.09A.7.7,0,0,1,125,19a.49.49,0,0,1-.1-.3.58.58,0,0,1,0-.19.46.46,0,0,1,.11-.16.64.64,0,0,1,.2-.11.68.68,0,0,1,.26,0,.89.89,0,0,1,.4.08q.15.08.15.18a.29.29,0,0,1,0,.09l-.06.05-.18-.1a.78.78,0,0,0-.28-.05.49.49,0,0,0-.25.06.23.23,0,0,0-.09.19.27.27,0,0,0,0,.15.38.38,0,0,0,.18.09l.24.06a.77.77,0,0,1,.36.19A.5.5,0,0,1,126.12,19.55Z"/><path d="M127.93,20.06a.85.85,0,0,1-.23,0,.75.75,0,0,1-.18-.07v.74l0,0h-.08a.13.13,0,0,1-.15-.15v-2a.37.37,0,0,1,0-.12.27.27,0,0,1,.11-.1.9.9,0,0,1,.22-.1.94.94,0,0,1,.3-.05,1.13,1.13,0,0,1,.32.05.69.69,0,0,1,.27.17.78.78,0,0,1,.17.28,1.32,1.32,0,0,1,.07.42,1.22,1.22,0,0,1-.06.41.73.73,0,0,1-.41.47A1.13,1.13,0,0,1,127.93,20.06Zm0-.25a.5.5,0,0,0,.39-.16.75.75,0,0,0,.15-.52.93.93,0,0,0,0-.31.53.53,0,0,0-.12-.21.66.66,0,0,0-.17-.12.76.76,0,0,0-.21,0,.66.66,0,0,0-.21,0l-.16.08v1.12a.42.42,0,0,0,.16.09A.66.66,0,0,0,127.89,19.81Z"/><path d="M130.65,19.14a1.46,1.46,0,0,1-.05.38.9.9,0,0,1-.16.29.76.76,0,0,1-.25.19.94.94,0,0,1-.66,0,.67.67,0,0,1-.25-.19.75.75,0,0,1-.16-.29,1.12,1.12,0,0,1-.06-.38,1.18,1.18,0,0,1,.06-.39.9.9,0,0,1,.16-.29.79.79,0,0,1,.25-.19.88.88,0,0,1,.33-.06.83.83,0,0,1,.32.06.79.79,0,0,1,.25.19.75.75,0,0,1,.16.29A1.18,1.18,0,0,1,130.65,19.14Zm-.79-.68a.45.45,0,0,0-.38.18.8.8,0,0,0-.13.5.82.82,0,0,0,.13.5.47.47,0,0,0,.38.17.43.43,0,0,0,.37-.18.77.77,0,0,0,.13-.49.8.8,0,0,0-.13-.5A.43.43,0,0,0,129.86,18.46Z"/><path d="M132.23,19.55a.47.47,0,0,1-.17.38.73.73,0,0,1-.47.13,1,1,0,0,1-.25,0,.84.84,0,0,1-.19-.07.27.27,0,0,1-.12-.09.16.16,0,0,1-.05-.1.16.16,0,0,1,0-.09.16.16,0,0,1,.07-.07.91.91,0,0,0,.22.13.64.64,0,0,0,.28.06c.25,0,.37-.09.37-.26a.27.27,0,0,0-.24-.28l-.3-.09a.7.7,0,0,1-.31-.17.49.49,0,0,1-.09-.3.58.58,0,0,1,0-.19.38.38,0,0,1,.12-.16.5.5,0,0,1,.19-.11.68.68,0,0,1,.26,0,.89.89,0,0,1,.4.08q.15.08.15.18a.29.29,0,0,1,0,.09l-.06.05-.18-.1a.78.78,0,0,0-.28-.05.49.49,0,0,0-.25.06.23.23,0,0,0-.09.19.27.27,0,0,0,.05.15.38.38,0,0,0,.18.09l.24.06a.77.77,0,0,1,.36.19A.5.5,0,0,1,132.23,19.55Z"/><path d="M132.63,17.7a.17.17,0,0,1,.05-.13.15.15,0,0,1,.13-.06.18.18,0,0,1,.13.06.21.21,0,0,1,.05.13.22.22,0,0,1-.05.14.17.17,0,0,1-.13.05.14.14,0,0,1-.13-.05A.17.17,0,0,1,132.63,17.7ZM133,20h-.13c-.1,0-.15,0-.15-.13V18.27l.05,0h.08c.1,0,.15.05.15.14Z"/><path d="M134.24,18.46a.54.54,0,0,0-.22.05.43.43,0,0,0-.17.13.53.53,0,0,0-.12.21.85.85,0,0,0,0,.29.75.75,0,0,0,.15.5.48.48,0,0,0,.4.17.62.62,0,0,0,.25,0,1,1,0,0,0,.17-.1.13.13,0,0,1,.07.06.19.19,0,0,1,0,.08.17.17,0,0,1-.1.15.54.54,0,0,1-.27.09.47.47,0,0,1,.08.29.39.39,0,0,1-.1.29.36.36,0,0,1-.27.1c-.13,0-.19,0-.19-.13a.3.3,0,0,1,0-.1H134a.24.24,0,0,0,.18-.05.23.23,0,0,0,.06-.16.43.43,0,0,0,0-.11.61.61,0,0,0,0-.12,1,1,0,0,1-.3-.08.81.81,0,0,1-.24-.17,1.06,1.06,0,0,1-.15-.28,1.14,1.14,0,0,1-.06-.39,1,1,0,0,1,.07-.4.75.75,0,0,1,.18-.3.78.78,0,0,1,.26-.17.88.88,0,0,1,.33-.06l.2,0a.44.44,0,0,1,.16.06.27.27,0,0,1,.1.08.26.26,0,0,1,0,.1.11.11,0,0,1,0,.08.15.15,0,0,1-.06.05.91.91,0,0,0-.17-.09A.54.54,0,0,0,134.24,18.46Z"/><path d="M135.75,18.21a.74.74,0,0,1,.49.15.56.56,0,0,1,.18.46v.91a.21.21,0,0,1,0,.12.24.24,0,0,1-.09.08.83.83,0,0,1-.23.1,1.37,1.37,0,0,1-.31,0,.84.84,0,0,1-.51-.14.5.5,0,0,1-.18-.41.48.48,0,0,1,.15-.38.81.81,0,0,1,.42-.16l.5-.05v-.11a.34.34,0,0,0-.11-.27.41.41,0,0,0-.28-.09.87.87,0,0,0-.28.05l-.23.1-.05-.06a.24.24,0,0,1,0-.08.29.29,0,0,1,0-.09l.08-.06a.72.72,0,0,1,.22-.08A1.09,1.09,0,0,1,135.75,18.21Zm-.25-.67.14,0,.12,0,.1,0,.09,0a.11.11,0,0,0,.1,0,.3.3,0,0,0,0-.1h0a.2.2,0,0,1,.11,0s.05.06.05.11a.21.21,0,0,1-.07.17.27.27,0,0,1-.18.07.32.32,0,0,1-.14,0l-.13,0-.1-.05-.09,0a.13.13,0,0,0-.1,0s0,.07,0,.11h0a.2.2,0,0,1-.11,0,.14.14,0,0,1,0-.11.22.22,0,0,1,.08-.18A.28.28,0,0,1,135.5,17.54Zm.26,2.28a.55.55,0,0,0,.24,0,.48.48,0,0,0,.14-.06v-.55l-.43,0a.43.43,0,0,0-.27.09.29.29,0,0,0,0,.43A.52.52,0,0,0,135.76,19.82Z"/><path d="M138.43,19.14a1.12,1.12,0,0,1-.06.38.75.75,0,0,1-.16.29A.67.67,0,0,1,138,20a.81.81,0,0,1-.33.06.79.79,0,0,1-.32-.06.7.7,0,0,1-.26-.19.9.9,0,0,1-.16-.29,1.13,1.13,0,0,1,0-.38,1.54,1.54,0,0,1,0-.39.92.92,0,0,1,.17-.29.79.79,0,0,1,.25-.19.87.87,0,0,1,.32-.06.88.88,0,0,1,.33.06.79.79,0,0,1,.25.19.9.9,0,0,1,.16.29A1.18,1.18,0,0,1,138.43,19.14Zm-.8-.68a.45.45,0,0,0-.37.18.8.8,0,0,0-.14.5.82.82,0,0,0,.14.5.45.45,0,0,0,.37.17.44.44,0,0,0,.38-.18.77.77,0,0,0,.13-.49.8.8,0,0,0-.13-.5A.45.45,0,0,0,137.63,18.46Z"/><path class="cls-3" d="M102.05,12.75a.56.56,0,0,1,0,.23.45.45,0,0,1-.1.32.34.34,0,0,1-.26.1h-.67v2.76l-.2,0h-.27a.66.66,0,0,1-.43-.1.5.5,0,0,1-.12-.39V13.4h-.89a.54.54,0,0,1-.07-.17A.59.59,0,0,1,99,13a.5.5,0,0,1,.1-.33.36.36,0,0,1,.26-.1H102A.61.61,0,0,1,102.05,12.75Z"/><path class="cls-3" d="M103.27,16.16l-.18,0h-.26a.79.79,0,0,1-.43-.09.48.48,0,0,1-.13-.38V14a.49.49,0,0,1,.09-.3.73.73,0,0,1,.24-.22,1.46,1.46,0,0,1,.48-.19,2.17,2.17,0,0,1,.57-.07c.43,0,.65.15.65.46a.64.64,0,0,1,0,.2,1.07,1.07,0,0,1-.07.15l-.33,0a1.15,1.15,0,0,0-.31,0,.91.91,0,0,0-.29.1Z"/><path class="cls-3" d="M105.78,13.2a2.49,2.49,0,0,1,.57.06,1.16,1.16,0,0,1,.45.2,1,1,0,0,1,.29.34,1.14,1.14,0,0,1,.1.48v1.33a.35.35,0,0,1-.09.25.82.82,0,0,1-.2.17,2.17,2.17,0,0,1-1.08.23,2.47,2.47,0,0,1-.56-.06,1.39,1.39,0,0,1-.43-.18.77.77,0,0,1-.27-.3.83.83,0,0,1-.1-.43.78.78,0,0,1,.24-.62,1.3,1.3,0,0,1,.75-.28l.77-.08v0a.26.26,0,0,0-.15-.25,1,1,0,0,0-.44-.07,1.63,1.63,0,0,0-.43.05,2.9,2.9,0,0,0-.38.11.35.35,0,0,1-.13-.16.46.46,0,0,1,0-.23.36.36,0,0,1,.07-.24.52.52,0,0,1,.23-.16,1.83,1.83,0,0,1,.4-.09Zm0,2.33.22,0a.56.56,0,0,0,.18-.05V15l-.42,0a.67.67,0,0,0-.27.07.2.2,0,0,0-.11.18.23.23,0,0,0,.09.19A.52.52,0,0,0,105.82,15.53Zm.36-3.82a.65.65,0,0,1,.45.13.36.36,0,0,1,.16.29.39.39,0,0,1-.06.23,1.24,1.24,0,0,1-.2.21L106,13a.54.54,0,0,1-.39-.13.35.35,0,0,1-.13-.27.59.59,0,0,1,0-.13.66.66,0,0,1,.11-.16Z"/><path class="cls-3" d="M108.75,13.51h1l.07.16a.78.78,0,0,1,0,.22.41.41,0,0,1-.09.3.35.35,0,0,1-.25.09h-.67v1.88l-.19,0h-.26a.73.73,0,0,1-.42-.09.45.45,0,0,1-.13-.38V13.28a1.13,1.13,0,0,1,.1-.51.92.92,0,0,1,.28-.36,1.2,1.2,0,0,1,.41-.2,1.7,1.7,0,0,1,.51-.07,1.29,1.29,0,0,1,.64.12.4.4,0,0,1,.21.39.46.46,0,0,1,0,.21.45.45,0,0,1-.11.15l-.23,0a1.2,1.2,0,0,0-.28,0,.7.7,0,0,0-.39.09.32.32,0,0,0-.15.3Z"/><path class="cls-3" d="M111.05,15.12a.55.55,0,0,0,.28.3,1,1,0,0,0,.43.09,1.78,1.78,0,0,0,.47-.06,1.56,1.56,0,0,0,.36-.15.52.52,0,0,1,.16.17.43.43,0,0,1,.06.22.38.38,0,0,1-.08.26.51.51,0,0,1-.23.17,1.17,1.17,0,0,1-.36.11,3,3,0,0,1-.45,0,1.91,1.91,0,0,1-.64-.1,1.4,1.4,0,0,1-.52-.29,1.48,1.48,0,0,1-.34-.49,1.86,1.86,0,0,1-.12-.7,1.54,1.54,0,0,1,.13-.67,1.21,1.21,0,0,1,.33-.46,1.47,1.47,0,0,1,.47-.27,1.68,1.68,0,0,1,.54-.08,1.7,1.7,0,0,1,.57.09,1.28,1.28,0,0,1,.44.26,1.06,1.06,0,0,1,.29.4,1.35,1.35,0,0,1,.1.5.42.42,0,0,1-.11.31.59.59,0,0,1-.32.14Zm.5-1.19a.53.53,0,0,0-.37.14.59.59,0,0,0-.18.38l1-.16a.56.56,0,0,0,0-.12.25.25,0,0,0-.08-.12.48.48,0,0,0-.14-.09A.5.5,0,0,0,111.55,13.93Z"/><path class="cls-3" d="M115.18,16l-.26.07a1.58,1.58,0,0,1-.32,0,1.64,1.64,0,0,1-.5-.08,1.1,1.1,0,0,1-.42-.24,1.15,1.15,0,0,1-.28-.44,1.55,1.55,0,0,1-.11-.65,1.71,1.71,0,0,1,.11-.62,1.31,1.31,0,0,1,.3-.46,1.33,1.33,0,0,1,.48-.27,2.08,2.08,0,0,1,.63-.09,1.67,1.67,0,0,1,.32,0l.3.06.25.09.19.1a.64.64,0,0,1,.18.19.44.44,0,0,1,.07.26v2.2a1.35,1.35,0,0,1-.11.55,1.18,1.18,0,0,1-.32.38,1.41,1.41,0,0,1-.48.22,2.15,2.15,0,0,1-.58.07,3.06,3.06,0,0,1-.56-.05.89.89,0,0,1-.38-.15.45.45,0,0,1-.21-.4.7.7,0,0,1,0-.25.43.43,0,0,1,.13-.16,2.72,2.72,0,0,0,.38.16,1.74,1.74,0,0,0,.45.06.91.91,0,0,0,.5-.11.35.35,0,0,0,.19-.34Zm-.39-.66a.68.68,0,0,0,.21,0,.48.48,0,0,0,.16-.08V14.06L115,14l-.18,0a.58.58,0,0,0-.41.16.74.74,0,0,0-.16.51.67.67,0,0,0,.15.51A.48.48,0,0,0,114.79,15.29Z"/><path class="cls-3" d="M119.69,14.73a1.66,1.66,0,0,1-.11.64,1.21,1.21,0,0,1-.31.48,1.31,1.31,0,0,1-.48.3,1.62,1.62,0,0,1-.64.11,1.81,1.81,0,0,1-.63-.1,1.21,1.21,0,0,1-.48-.31,1.35,1.35,0,0,1-.32-.48,1.83,1.83,0,0,1-.1-.64,1.62,1.62,0,0,1,.11-.64,1.33,1.33,0,0,1,.31-.48,1.46,1.46,0,0,1,.49-.31,1.72,1.72,0,0,1,.62-.1,1.57,1.57,0,0,1,.63.11,1.44,1.44,0,0,1,.49.3,1.46,1.46,0,0,1,.31.49A1.61,1.61,0,0,1,119.69,14.73ZM118.15,14a.44.44,0,0,0-.38.2,1,1,0,0,0-.13.55,1,1,0,0,0,.13.56.45.45,0,0,0,.38.18.44.44,0,0,0,.39-.19.93.93,0,0,0,.13-.55,1,1,0,0,0-.13-.55A.45.45,0,0,0,118.15,14Z"/><path class="cls-3" d="M125,14.36a2.07,2.07,0,0,1-.15.82,1.64,1.64,0,0,1-1,1,2.17,2.17,0,0,1-.74.12,2.25,2.25,0,0,1-.74-.12,1.6,1.6,0,0,1-.58-.37,1.56,1.56,0,0,1-.39-.6,2.11,2.11,0,0,1-.14-.82,2.06,2.06,0,0,1,.14-.81,1.83,1.83,0,0,1,.39-.6,1.71,1.71,0,0,1,.59-.36,2,2,0,0,1,.73-.13,1.9,1.9,0,0,1,.73.13,1.54,1.54,0,0,1,.59.36,1.58,1.58,0,0,1,.4.6A2.05,2.05,0,0,1,125,14.36Zm-1.06,0a1.23,1.23,0,0,0-.22-.8.73.73,0,0,0-.59-.26.71.71,0,0,0-.58.26,1.27,1.27,0,0,0-.22.8,1.3,1.3,0,0,0,.22.81.72.72,0,0,0,.59.27.7.7,0,0,0,.58-.27A1.24,1.24,0,0,0,123.92,14.36Z"/><path class="cls-3" d="M128.29,16.16l-.18,0h-.26a.79.79,0,0,1-.43-.09.48.48,0,0,1-.12-.38v-1.4a.34.34,0,0,0-.11-.27.46.46,0,0,0-.29-.09.78.78,0,0,0-.22,0l-.2.08v2.07l-.18,0H126a.73.73,0,0,1-.42-.09.45.45,0,0,1-.13-.38V14a.53.53,0,0,1,.06-.26,1.11,1.11,0,0,1,.19-.18,1.79,1.79,0,0,1,.5-.23,2.37,2.37,0,0,1,.67-.08,1.56,1.56,0,0,1,1,.29,1,1,0,0,1,.35.82Z"/><path class="cls-3" d="M129.49,16.21a.77.77,0,0,1-.42-.09.45.45,0,0,1-.13-.38V12.3l.19,0h.26a.69.69,0,0,1,.42.1.43.43,0,0,1,.13.37v3.44l-.19,0Z"/><path class="cls-3" d="M130.56,12.48a.54.54,0,0,1,.15-.38.53.53,0,0,1,.39-.15.51.51,0,0,1,.55.53.52.52,0,0,1-.15.38.51.51,0,0,1-.4.16.5.5,0,0,1-.39-.16A.52.52,0,0,1,130.56,12.48Zm0,.85.19,0,.26,0a.72.72,0,0,1,.42.1.45.45,0,0,1,.13.38v2.41l-.18,0h-.26a.79.79,0,0,1-.43-.09.48.48,0,0,1-.13-.38Z"/><path class="cls-3" d="M135,16.16l-.18,0h-.26a.73.73,0,0,1-.42-.09.45.45,0,0,1-.13-.38v-1.4a.34.34,0,0,0-.11-.27.46.46,0,0,0-.29-.09.78.78,0,0,0-.22,0l-.19.08v2.07l-.19,0h-.26a.73.73,0,0,1-.42-.09.45.45,0,0,1-.13-.38V14a.53.53,0,0,1,.06-.26,1.11,1.11,0,0,1,.19-.18,1.79,1.79,0,0,1,.5-.23,2.37,2.37,0,0,1,.67-.08,1.56,1.56,0,0,1,1,.29,1,1,0,0,1,.35.82Z"/><path class="cls-3" d="M136.52,15.12a.52.52,0,0,0,.28.3,1,1,0,0,0,.43.09,1.84,1.84,0,0,0,.47-.06,1.56,1.56,0,0,0,.36-.15.66.66,0,0,1,.16.17.43.43,0,0,1,.06.22.45.45,0,0,1-.08.26.58.58,0,0,1-.23.17,1.17,1.17,0,0,1-.36.11,3.19,3.19,0,0,1-.45,0,1.87,1.87,0,0,1-.64-.1,1.4,1.4,0,0,1-.52-.29,1.34,1.34,0,0,1-.34-.49,1.86,1.86,0,0,1-.12-.7,1.71,1.71,0,0,1,.12-.67,1.35,1.35,0,0,1,.34-.46,1.47,1.47,0,0,1,.47-.27,1.68,1.68,0,0,1,.54-.08,1.7,1.7,0,0,1,.57.09,1.28,1.28,0,0,1,.44.26,1.18,1.18,0,0,1,.29.4,1.35,1.35,0,0,1,.1.5.39.39,0,0,1-.12.31.53.53,0,0,1-.31.14Zm.5-1.19a.53.53,0,0,0-.37.14.59.59,0,0,0-.18.38l1-.16a.27.27,0,0,0,0-.12.36.36,0,0,0-.08-.12.48.48,0,0,0-.14-.09A.54.54,0,0,0,137,13.93Z"/></svg>